<mxfile host="65bd71144e">
    <diagram id="R2lEEEUBdFMjLlhIrx00" name="Page-1">
        <mxGraphModel dx="3616" dy="1720" grid="1" gridSize="10" guides="0" tooltips="1" connect="1" arrows="1" fold="1" page="0" pageScale="1" pageWidth="850" pageHeight="1100" math="0" shadow="0" extFonts="Permanent Marker^https://fonts.googleapis.com/css?family=Permanent+Marker">
            <root>
                <mxCell id="0"/>
                <mxCell id="1" parent="0"/>
                <mxCell id="ju4wl3G7gAER3PkKtNhU-2" value="namespaces" style="swimlane;fontStyle=0;childLayout=stackLayout;horizontal=1;startSize=40;fillColor=default;horizontalStack=0;resizeParent=1;resizeParentMax=0;resizeLast=0;collapsible=1;marginBottom=0;" parent="1" vertex="1">
                    <mxGeometry x="560" y="320" width="200" height="80" as="geometry"/>
                </mxCell>
                <mxCell id="ju4wl3G7gAER3PkKtNhU-19" value="" style="shape=table;startSize=0;container=1;collapsible=1;childLayout=tableLayout;fixedRows=1;rowLines=0;fontStyle=0;align=center;resizeLast=1;strokeColor=none;fillColor=default;collapsible=0;swimlaneFillColor=none;dropTarget=1;" parent="ju4wl3G7gAER3PkKtNhU-2" vertex="1">
                    <mxGeometry y="40" width="200" height="40" as="geometry"/>
                </mxCell>
                <mxCell id="ju4wl3G7gAER3PkKtNhU-20" value="" style="shape=tableRow;horizontal=0;startSize=0;swimlaneHead=0;swimlaneBody=0;fillColor=default;collapsible=0;dropTarget=0;points=[[0,0.5],[1,0.5]];portConstraint=eastwest;top=0;left=0;right=0;bottom=0;spacingLeft=0;spacingRight=0;strokeColor=default;rounded=0;shadow=0;sketch=0;swimlaneLine=1;" parent="ju4wl3G7gAER3PkKtNhU-19" vertex="1">
                    <mxGeometry width="200" height="40" as="geometry"/>
                </mxCell>
                <mxCell id="ju4wl3G7gAER3PkKtNhU-21" value="name" style="shape=partialRectangle;connectable=0;fillColor=none;top=0;left=0;bottom=0;right=0;editable=1;overflow=hidden;align=left;perimeterSpacing=1;spacingLeft=4;" parent="ju4wl3G7gAER3PkKtNhU-20" vertex="1">
                    <mxGeometry width="100" height="40" as="geometry">
                        <mxRectangle width="100" height="40" as="alternateBounds"/>
                    </mxGeometry>
                </mxCell>
                <mxCell id="ju4wl3G7gAER3PkKtNhU-22" value="uniq vchar(100)" style="shape=partialRectangle;connectable=0;fillColor=none;top=0;left=0;bottom=0;right=0;align=right;spacingLeft=0;overflow=hidden;spacingRight=4;" parent="ju4wl3G7gAER3PkKtNhU-20" vertex="1">
                    <mxGeometry x="100" width="100" height="40" as="geometry">
                        <mxRectangle width="100" height="40" as="alternateBounds"/>
                    </mxGeometry>
                </mxCell>
                <mxCell id="ju4wl3G7gAER3PkKtNhU-16" value="" style="shape=tableRow;horizontal=0;startSize=0;swimlaneHead=0;swimlaneBody=0;fillColor=none;collapsible=0;dropTarget=0;points=[[0,0.5],[1,0.5]];portConstraint=eastwest;top=0;left=0;right=0;bottom=0;spacingLeft=0;spacingRight=0;strokeColor=default;rounded=0;shadow=0;sketch=0;swimlaneLine=1;" parent="ju4wl3G7gAER3PkKtNhU-2" vertex="1">
                    <mxGeometry y="80" width="200" as="geometry"/>
                </mxCell>
                <mxCell id="ju4wl3G7gAER3PkKtNhU-23" value="git_repositories" style="swimlane;fontStyle=0;childLayout=stackLayout;horizontal=1;startSize=40;fillColor=default;horizontalStack=0;resizeParent=1;resizeParentMax=0;resizeLast=0;collapsible=1;marginBottom=0;" parent="1" vertex="1">
                    <mxGeometry x="560" y="-40" width="200" height="280" as="geometry"/>
                </mxCell>
                <mxCell id="ju4wl3G7gAER3PkKtNhU-24" value="" style="shape=table;startSize=0;container=1;collapsible=1;childLayout=tableLayout;fixedRows=1;rowLines=0;fontStyle=0;align=center;resizeLast=1;strokeColor=none;fillColor=default;collapsible=0;swimlaneFillColor=none;" parent="ju4wl3G7gAER3PkKtNhU-23" vertex="1">
                    <mxGeometry y="40" width="200" height="40" as="geometry"/>
                </mxCell>
                <mxCell id="ju4wl3G7gAER3PkKtNhU-25" value="" style="shape=tableRow;horizontal=0;startSize=0;swimlaneHead=0;swimlaneBody=0;fillColor=default;collapsible=0;dropTarget=0;points=[[0,0.5],[1,0.5]];portConstraint=eastwest;top=0;left=0;right=0;bottom=0;spacingLeft=0;spacingRight=0;strokeColor=default;rounded=0;shadow=0;sketch=0;swimlaneLine=1;" parent="ju4wl3G7gAER3PkKtNhU-24" vertex="1">
                    <mxGeometry width="200" height="40" as="geometry"/>
                </mxCell>
                <mxCell id="ju4wl3G7gAER3PkKtNhU-26" value="id" style="shape=partialRectangle;connectable=0;fillColor=none;top=0;left=0;bottom=0;right=0;editable=1;overflow=hidden;align=left;perimeterSpacing=0;spacingLeft=4;labelBorderColor=none;" parent="ju4wl3G7gAER3PkKtNhU-25" vertex="1">
                    <mxGeometry width="100" height="40" as="geometry">
                        <mxRectangle width="100" height="40" as="alternateBounds"/>
                    </mxGeometry>
                </mxCell>
                <mxCell id="ju4wl3G7gAER3PkKtNhU-27" value="pk uuid" style="shape=partialRectangle;connectable=0;fillColor=none;top=0;left=0;bottom=0;right=0;align=right;spacingLeft=0;overflow=hidden;spacingRight=4;" parent="ju4wl3G7gAER3PkKtNhU-25" vertex="1">
                    <mxGeometry x="100" width="100" height="40" as="geometry">
                        <mxRectangle width="100" height="40" as="alternateBounds"/>
                    </mxGeometry>
                </mxCell>
                <mxCell id="225" value="" style="shape=tableRow;horizontal=0;startSize=0;swimlaneHead=0;swimlaneBody=0;fillColor=default;collapsible=0;dropTarget=0;points=[[0,0.5],[1,0.5]];portConstraint=eastwest;top=0;left=0;right=0;bottom=0;spacingLeft=0;spacingRight=0;strokeColor=default;rounded=0;shadow=0;sketch=0;swimlaneLine=1;" parent="ju4wl3G7gAER3PkKtNhU-23" vertex="1">
                    <mxGeometry y="80" width="200" height="40" as="geometry"/>
                </mxCell>
                <mxCell id="226" value="name" style="shape=partialRectangle;connectable=0;fillColor=none;top=0;left=0;bottom=0;right=0;editable=1;overflow=hidden;align=left;perimeterSpacing=1;spacingLeft=4;" parent="225" vertex="1">
                    <mxGeometry width="100" height="40" as="geometry">
                        <mxRectangle width="60" height="40" as="alternateBounds"/>
                    </mxGeometry>
                </mxCell>
                <mxCell id="227" value="uniq vchar(100)" style="shape=partialRectangle;connectable=0;fillColor=none;top=0;left=0;bottom=0;right=0;align=right;spacingLeft=0;overflow=hidden;spacingRight=4;" parent="225" vertex="1">
                    <mxGeometry x="100" width="100" height="40" as="geometry">
                        <mxRectangle width="100" height="40" as="alternateBounds"/>
                    </mxGeometry>
                </mxCell>
                <mxCell id="IExEv5vbONQzC7ZX7vnK-5" value="" style="shape=tableRow;horizontal=0;startSize=0;swimlaneHead=0;swimlaneBody=0;fillColor=default;collapsible=0;dropTarget=0;points=[[0,0.5],[1,0.5]];portConstraint=eastwest;top=0;left=0;right=0;bottom=0;spacingLeft=0;spacingRight=0;strokeColor=default;rounded=0;shadow=0;sketch=0;swimlaneLine=1;" parent="ju4wl3G7gAER3PkKtNhU-23" vertex="1">
                    <mxGeometry y="120" width="200" height="40" as="geometry"/>
                </mxCell>
                <mxCell id="IExEv5vbONQzC7ZX7vnK-6" value="url" style="shape=partialRectangle;connectable=0;fillColor=none;top=0;left=0;bottom=0;right=0;editable=1;overflow=hidden;align=left;perimeterSpacing=1;spacingLeft=4;" parent="IExEv5vbONQzC7ZX7vnK-5" vertex="1">
                    <mxGeometry width="100" height="40" as="geometry">
                        <mxRectangle width="60" height="40" as="alternateBounds"/>
                    </mxGeometry>
                </mxCell>
                <mxCell id="IExEv5vbONQzC7ZX7vnK-7" value="vchar(100)" style="shape=partialRectangle;connectable=0;fillColor=none;top=0;left=0;bottom=0;right=0;align=right;spacingLeft=0;overflow=hidden;spacingRight=4;" parent="IExEv5vbONQzC7ZX7vnK-5" vertex="1">
                    <mxGeometry x="100" width="100" height="40" as="geometry">
                        <mxRectangle width="140" height="40" as="alternateBounds"/>
                    </mxGeometry>
                </mxCell>
                <mxCell id="IExEv5vbONQzC7ZX7vnK-8" value="" style="shape=tableRow;horizontal=0;startSize=0;swimlaneHead=0;swimlaneBody=0;fillColor=default;collapsible=0;dropTarget=0;points=[[0,0.5],[1,0.5]];portConstraint=eastwest;top=0;left=0;right=0;bottom=0;spacingLeft=0;spacingRight=0;strokeColor=default;rounded=0;shadow=0;sketch=0;swimlaneLine=1;" parent="ju4wl3G7gAER3PkKtNhU-23" vertex="1">
                    <mxGeometry y="160" width="200" height="40" as="geometry"/>
                </mxCell>
                <mxCell id="IExEv5vbONQzC7ZX7vnK-9" value="token" style="shape=partialRectangle;connectable=0;fillColor=none;top=0;left=0;bottom=0;right=0;editable=1;overflow=hidden;align=left;perimeterSpacing=1;spacingLeft=4;" parent="IExEv5vbONQzC7ZX7vnK-8" vertex="1">
                    <mxGeometry width="100" height="40" as="geometry">
                        <mxRectangle width="60" height="40" as="alternateBounds"/>
                    </mxGeometry>
                </mxCell>
                <mxCell id="IExEv5vbONQzC7ZX7vnK-10" value="vchar(100)" style="shape=partialRectangle;connectable=0;fillColor=none;top=0;left=0;bottom=0;right=0;align=right;spacingLeft=0;overflow=hidden;spacingRight=4;" parent="IExEv5vbONQzC7ZX7vnK-8" vertex="1">
                    <mxGeometry x="100" width="100" height="40" as="geometry">
                        <mxRectangle width="140" height="40" as="alternateBounds"/>
                    </mxGeometry>
                </mxCell>
                <mxCell id="302" value="" style="shape=tableRow;horizontal=0;startSize=0;swimlaneHead=0;swimlaneBody=0;fillColor=default;collapsible=0;dropTarget=0;points=[[0,0.5],[1,0.5]];portConstraint=eastwest;top=0;left=0;right=0;bottom=0;spacingLeft=0;spacingRight=0;strokeColor=default;rounded=0;shadow=0;sketch=0;swimlaneLine=1;" parent="ju4wl3G7gAER3PkKtNhU-23" vertex="1">
                    <mxGeometry y="200" width="200" height="80" as="geometry"/>
                </mxCell>
                <mxCell id="303" value="token" style="shape=partialRectangle;connectable=0;fillColor=none;top=0;left=0;bottom=0;right=0;editable=1;overflow=hidden;align=left;perimeterSpacing=1;spacingLeft=4;" parent="302" vertex="1">
                    <mxGeometry width="100" height="80" as="geometry">
                        <mxRectangle width="60" height="40" as="alternateBounds"/>
                    </mxGeometry>
                </mxCell>
                <mxCell id="304" value="enum(&#10;'github',&#10;'gitlab',&#10;'local',&#10;)" style="shape=partialRectangle;connectable=0;fillColor=none;top=0;left=0;bottom=0;right=0;align=right;spacingLeft=0;overflow=hidden;spacingRight=4;" parent="302" vertex="1">
                    <mxGeometry x="100" width="100" height="80" as="geometry">
                        <mxRectangle width="140" height="40" as="alternateBounds"/>
                    </mxGeometry>
                </mxCell>
                <mxCell id="ju4wl3G7gAER3PkKtNhU-32" value="" style="shape=tableRow;horizontal=0;startSize=0;swimlaneHead=0;swimlaneBody=0;fillColor=none;collapsible=0;dropTarget=0;points=[[0,0.5],[1,0.5]];portConstraint=eastwest;top=0;left=0;right=0;bottom=0;spacingLeft=0;spacingRight=0;strokeColor=default;rounded=0;shadow=0;sketch=0;swimlaneLine=1;" parent="ju4wl3G7gAER3PkKtNhU-23" vertex="1">
                    <mxGeometry y="280" width="200" as="geometry"/>
                </mxCell>
                <mxCell id="IExEv5vbONQzC7ZX7vnK-12" value="hosts" style="swimlane;fontStyle=0;childLayout=stackLayout;horizontal=1;startSize=40;fillColor=default;horizontalStack=0;resizeParent=1;resizeParentMax=0;resizeLast=0;collapsible=1;marginBottom=0;strokeColor=default;" parent="1" vertex="1">
                    <mxGeometry x="640" y="-410" width="200" height="160" as="geometry"/>
                </mxCell>
                <mxCell id="IExEv5vbONQzC7ZX7vnK-13" value="" style="shape=table;startSize=0;container=1;collapsible=1;childLayout=tableLayout;fixedRows=1;rowLines=0;fontStyle=0;align=center;resizeLast=1;strokeColor=none;fillColor=default;collapsible=0;swimlaneFillColor=none;" parent="IExEv5vbONQzC7ZX7vnK-12" vertex="1">
                    <mxGeometry y="40" width="200" height="40" as="geometry"/>
                </mxCell>
                <mxCell id="IExEv5vbONQzC7ZX7vnK-14" value="" style="shape=tableRow;horizontal=0;startSize=0;swimlaneHead=0;swimlaneBody=0;fillColor=default;collapsible=0;dropTarget=0;points=[[0,0.5],[1,0.5]];portConstraint=eastwest;top=0;left=0;right=0;bottom=0;spacingLeft=0;spacingRight=0;strokeColor=default;rounded=0;shadow=0;sketch=0;swimlaneLine=1;" parent="IExEv5vbONQzC7ZX7vnK-13" vertex="1">
                    <mxGeometry width="200" height="40" as="geometry"/>
                </mxCell>
                <mxCell id="IExEv5vbONQzC7ZX7vnK-15" value="id" style="shape=partialRectangle;connectable=0;fillColor=none;top=0;left=0;bottom=0;right=0;editable=1;overflow=hidden;align=left;perimeterSpacing=0;spacingLeft=4;labelBorderColor=none;" parent="IExEv5vbONQzC7ZX7vnK-14" vertex="1">
                    <mxGeometry width="100" height="40" as="geometry">
                        <mxRectangle width="100" height="40" as="alternateBounds"/>
                    </mxGeometry>
                </mxCell>
                <mxCell id="IExEv5vbONQzC7ZX7vnK-16" value="uuid" style="shape=partialRectangle;connectable=0;fillColor=none;top=0;left=0;bottom=0;right=0;align=right;spacingLeft=0;overflow=hidden;spacingRight=4;" parent="IExEv5vbONQzC7ZX7vnK-14" vertex="1">
                    <mxGeometry x="100" width="100" height="40" as="geometry">
                        <mxRectangle width="100" height="40" as="alternateBounds"/>
                    </mxGeometry>
                </mxCell>
                <mxCell id="58" value="" style="shape=tableRow;horizontal=0;startSize=0;swimlaneHead=0;swimlaneBody=0;fillColor=default;collapsible=0;dropTarget=0;points=[[0,0.5],[1,0.5]];portConstraint=eastwest;top=0;left=0;right=0;bottom=0;spacingLeft=0;spacingRight=0;strokeColor=default;rounded=0;shadow=0;sketch=0;swimlaneLine=1;" parent="IExEv5vbONQzC7ZX7vnK-12" vertex="1">
                    <mxGeometry y="80" width="200" height="40" as="geometry"/>
                </mxCell>
                <mxCell id="59" value="name" style="shape=partialRectangle;connectable=0;fillColor=none;top=0;left=0;bottom=0;right=0;editable=1;overflow=hidden;align=left;perimeterSpacing=1;spacingLeft=4;" parent="58" vertex="1">
                    <mxGeometry width="100" height="40" as="geometry">
                        <mxRectangle width="100" height="40" as="alternateBounds"/>
                    </mxGeometry>
                </mxCell>
                <mxCell id="60" value="uniq vchar(100)" style="shape=partialRectangle;connectable=0;fillColor=none;top=0;left=0;bottom=0;right=0;align=right;spacingLeft=0;overflow=hidden;spacingRight=4;strokeColor=none;" parent="58" vertex="1">
                    <mxGeometry x="100" width="100" height="40" as="geometry">
                        <mxRectangle width="100" height="40" as="alternateBounds"/>
                    </mxGeometry>
                </mxCell>
                <mxCell id="IExEv5vbONQzC7ZX7vnK-61" value="" style="shape=tableRow;horizontal=0;startSize=0;swimlaneHead=0;swimlaneBody=0;fillColor=default;collapsible=0;dropTarget=0;points=[[0,0.5],[1,0.5]];portConstraint=eastwest;top=0;left=0;right=0;bottom=0;spacingLeft=0;spacingRight=0;strokeColor=default;rounded=0;shadow=0;sketch=0;swimlaneLine=1;" parent="IExEv5vbONQzC7ZX7vnK-12" vertex="1">
                    <mxGeometry y="120" width="200" height="40" as="geometry"/>
                </mxCell>
                <mxCell id="IExEv5vbONQzC7ZX7vnK-62" value="is_virtual" style="shape=partialRectangle;connectable=0;fillColor=none;top=0;left=0;bottom=0;right=0;editable=1;overflow=hidden;align=left;perimeterSpacing=1;spacingLeft=4;" parent="IExEv5vbONQzC7ZX7vnK-61" vertex="1">
                    <mxGeometry width="100" height="40" as="geometry">
                        <mxRectangle width="100" height="40" as="alternateBounds"/>
                    </mxGeometry>
                </mxCell>
                <mxCell id="IExEv5vbONQzC7ZX7vnK-63" value="boolean" style="shape=partialRectangle;connectable=0;fillColor=none;top=0;left=0;bottom=0;right=0;align=right;spacingLeft=0;overflow=hidden;spacingRight=4;strokeColor=none;" parent="IExEv5vbONQzC7ZX7vnK-61" vertex="1">
                    <mxGeometry x="100" width="100" height="40" as="geometry">
                        <mxRectangle width="100" height="40" as="alternateBounds"/>
                    </mxGeometry>
                </mxCell>
                <mxCell id="IExEv5vbONQzC7ZX7vnK-21" value="" style="shape=tableRow;horizontal=0;startSize=0;swimlaneHead=0;swimlaneBody=0;fillColor=none;collapsible=0;dropTarget=0;points=[[0,0.5],[1,0.5]];portConstraint=eastwest;top=0;left=0;right=0;bottom=0;spacingLeft=0;spacingRight=0;strokeColor=default;rounded=0;shadow=0;sketch=0;swimlaneLine=1;" parent="IExEv5vbONQzC7ZX7vnK-12" vertex="1">
                    <mxGeometry y="160" width="200" as="geometry"/>
                </mxCell>
                <mxCell id="IExEv5vbONQzC7ZX7vnK-29" value="networks" style="swimlane;fontStyle=0;childLayout=stackLayout;horizontal=1;startSize=40;fillColor=default;horizontalStack=0;resizeParent=1;resizeParentMax=0;resizeLast=0;collapsible=1;marginBottom=0;" parent="1" vertex="1">
                    <mxGeometry x="1200" y="-410" width="200" height="160" as="geometry"/>
                </mxCell>
                <mxCell id="IExEv5vbONQzC7ZX7vnK-30" value="" style="shape=table;startSize=0;container=1;collapsible=1;childLayout=tableLayout;fixedRows=1;rowLines=0;fontStyle=0;align=center;resizeLast=1;strokeColor=none;fillColor=default;collapsible=0;swimlaneFillColor=none;" parent="IExEv5vbONQzC7ZX7vnK-29" vertex="1">
                    <mxGeometry y="40" width="200" height="40" as="geometry"/>
                </mxCell>
                <mxCell id="IExEv5vbONQzC7ZX7vnK-31" value="" style="shape=tableRow;horizontal=0;startSize=0;swimlaneHead=0;swimlaneBody=0;fillColor=default;collapsible=0;dropTarget=0;points=[[0,0.5],[1,0.5]];portConstraint=eastwest;top=0;left=0;right=0;bottom=0;spacingLeft=0;spacingRight=0;strokeColor=default;rounded=0;shadow=0;sketch=0;swimlaneLine=1;" parent="IExEv5vbONQzC7ZX7vnK-30" vertex="1">
                    <mxGeometry width="200" height="40" as="geometry"/>
                </mxCell>
                <mxCell id="IExEv5vbONQzC7ZX7vnK-32" value="id" style="shape=partialRectangle;connectable=0;fillColor=none;top=0;left=0;bottom=0;right=0;editable=1;overflow=hidden;align=left;perimeterSpacing=0;spacingLeft=4;labelBorderColor=none;" parent="IExEv5vbONQzC7ZX7vnK-31" vertex="1">
                    <mxGeometry width="100" height="40" as="geometry">
                        <mxRectangle width="100" height="40" as="alternateBounds"/>
                    </mxGeometry>
                </mxCell>
                <mxCell id="IExEv5vbONQzC7ZX7vnK-33" value="uuid" style="shape=partialRectangle;connectable=0;fillColor=none;top=0;left=0;bottom=0;right=0;align=right;spacingLeft=0;overflow=hidden;spacingRight=4;" parent="IExEv5vbONQzC7ZX7vnK-31" vertex="1">
                    <mxGeometry x="100" width="100" height="40" as="geometry">
                        <mxRectangle width="100" height="40" as="alternateBounds"/>
                    </mxGeometry>
                </mxCell>
                <mxCell id="IExEv5vbONQzC7ZX7vnK-34" value="" style="shape=table;startSize=0;container=1;collapsible=1;childLayout=tableLayout;fixedRows=1;rowLines=0;fontStyle=0;align=center;resizeLast=1;strokeColor=none;fillColor=default;collapsible=0;swimlaneFillColor=none;dropTarget=1;" parent="IExEv5vbONQzC7ZX7vnK-29" vertex="1">
                    <mxGeometry y="80" width="200" height="80" as="geometry"/>
                </mxCell>
                <mxCell id="IExEv5vbONQzC7ZX7vnK-35" value="" style="shape=tableRow;horizontal=0;startSize=0;swimlaneHead=0;swimlaneBody=0;fillColor=default;collapsible=0;dropTarget=0;points=[[0,0.5],[1,0.5]];portConstraint=eastwest;top=0;left=0;right=0;bottom=0;spacingLeft=0;spacingRight=0;strokeColor=default;rounded=0;shadow=0;sketch=0;swimlaneLine=1;" parent="IExEv5vbONQzC7ZX7vnK-34" vertex="1">
                    <mxGeometry width="200" height="40" as="geometry"/>
                </mxCell>
                <mxCell id="IExEv5vbONQzC7ZX7vnK-36" value="name" style="shape=partialRectangle;connectable=0;fillColor=none;top=0;left=0;bottom=0;right=0;editable=1;overflow=hidden;align=left;perimeterSpacing=1;spacingLeft=4;" parent="IExEv5vbONQzC7ZX7vnK-35" vertex="1">
                    <mxGeometry width="100" height="40" as="geometry">
                        <mxRectangle width="100" height="40" as="alternateBounds"/>
                    </mxGeometry>
                </mxCell>
                <mxCell id="IExEv5vbONQzC7ZX7vnK-37" value="uniq vchar(100)" style="shape=partialRectangle;connectable=0;fillColor=none;top=0;left=0;bottom=0;right=0;align=right;spacingLeft=0;overflow=hidden;spacingRight=4;" parent="IExEv5vbONQzC7ZX7vnK-35" vertex="1">
                    <mxGeometry x="100" width="100" height="40" as="geometry">
                        <mxRectangle width="100" height="40" as="alternateBounds"/>
                    </mxGeometry>
                </mxCell>
                <mxCell id="KMIujWGuoNmX_fVta_UM-12" value="" style="shape=tableRow;horizontal=0;startSize=0;swimlaneHead=0;swimlaneBody=0;fillColor=default;collapsible=0;dropTarget=0;points=[[0,0.5],[1,0.5]];portConstraint=eastwest;top=0;left=0;right=0;bottom=0;spacingLeft=0;spacingRight=0;strokeColor=default;rounded=0;shadow=0;sketch=0;swimlaneLine=1;" parent="IExEv5vbONQzC7ZX7vnK-34" vertex="1">
                    <mxGeometry y="40" width="200" height="40" as="geometry"/>
                </mxCell>
                <mxCell id="KMIujWGuoNmX_fVta_UM-13" value="is_virtual" style="shape=partialRectangle;connectable=0;fillColor=none;top=0;left=0;bottom=0;right=0;editable=1;overflow=hidden;align=left;perimeterSpacing=1;spacingLeft=4;" parent="KMIujWGuoNmX_fVta_UM-12" vertex="1">
                    <mxGeometry width="100" height="40" as="geometry">
                        <mxRectangle width="100" height="40" as="alternateBounds"/>
                    </mxGeometry>
                </mxCell>
                <mxCell id="KMIujWGuoNmX_fVta_UM-14" value="boolean" style="shape=partialRectangle;connectable=0;fillColor=none;top=0;left=0;bottom=0;right=0;align=right;spacingLeft=0;overflow=hidden;spacingRight=4;" parent="KMIujWGuoNmX_fVta_UM-12" vertex="1">
                    <mxGeometry x="100" width="100" height="40" as="geometry">
                        <mxRectangle width="100" height="40" as="alternateBounds"/>
                    </mxGeometry>
                </mxCell>
                <mxCell id="IExEv5vbONQzC7ZX7vnK-44" value="" style="shape=tableRow;horizontal=0;startSize=0;swimlaneHead=0;swimlaneBody=0;fillColor=none;collapsible=0;dropTarget=0;points=[[0,0.5],[1,0.5]];portConstraint=eastwest;top=0;left=0;right=0;bottom=0;spacingLeft=0;spacingRight=0;strokeColor=default;rounded=0;shadow=0;sketch=0;swimlaneLine=1;" parent="IExEv5vbONQzC7ZX7vnK-29" vertex="1">
                    <mxGeometry y="160" width="200" as="geometry"/>
                </mxCell>
                <mxCell id="IExEv5vbONQzC7ZX7vnK-45" value="host_networks" style="swimlane;fontStyle=0;childLayout=stackLayout;horizontal=1;startSize=40;fillColor=default;horizontalStack=0;resizeParent=1;resizeParentMax=0;resizeLast=0;collapsible=1;marginBottom=0;strokeColor=default;" parent="1" vertex="1">
                    <mxGeometry x="920" y="-410" width="200" height="120" as="geometry"/>
                </mxCell>
                <mxCell id="IExEv5vbONQzC7ZX7vnK-46" value="" style="shape=table;startSize=0;container=1;collapsible=1;childLayout=tableLayout;fixedRows=1;rowLines=0;fontStyle=0;align=center;resizeLast=1;strokeColor=none;fillColor=default;collapsible=0;swimlaneFillColor=none;" parent="IExEv5vbONQzC7ZX7vnK-45" vertex="1">
                    <mxGeometry y="40" width="200" height="40" as="geometry"/>
                </mxCell>
                <mxCell id="IExEv5vbONQzC7ZX7vnK-47" value="" style="shape=tableRow;horizontal=0;startSize=0;swimlaneHead=0;swimlaneBody=0;fillColor=default;collapsible=0;dropTarget=0;points=[[0,0.5],[1,0.5]];portConstraint=eastwest;top=0;left=0;right=0;bottom=0;spacingLeft=0;spacingRight=0;strokeColor=default;rounded=0;shadow=0;sketch=0;swimlaneLine=1;" parent="IExEv5vbONQzC7ZX7vnK-46" vertex="1">
                    <mxGeometry width="200" height="40" as="geometry"/>
                </mxCell>
                <mxCell id="IExEv5vbONQzC7ZX7vnK-48" value="host_id" style="shape=partialRectangle;connectable=0;fillColor=none;top=0;left=0;bottom=0;right=0;editable=1;overflow=hidden;align=left;perimeterSpacing=0;spacingLeft=4;labelBorderColor=none;" parent="IExEv5vbONQzC7ZX7vnK-47" vertex="1">
                    <mxGeometry width="100" height="40" as="geometry">
                        <mxRectangle width="100" height="40" as="alternateBounds"/>
                    </mxGeometry>
                </mxCell>
                <mxCell id="IExEv5vbONQzC7ZX7vnK-49" value="uuid" style="shape=partialRectangle;connectable=0;fillColor=none;top=0;left=0;bottom=0;right=0;align=right;spacingLeft=0;overflow=hidden;spacingRight=4;" parent="IExEv5vbONQzC7ZX7vnK-47" vertex="1">
                    <mxGeometry x="100" width="100" height="40" as="geometry">
                        <mxRectangle width="100" height="40" as="alternateBounds"/>
                    </mxGeometry>
                </mxCell>
                <mxCell id="IExEv5vbONQzC7ZX7vnK-50" value="" style="shape=table;startSize=0;container=1;collapsible=1;childLayout=tableLayout;fixedRows=1;rowLines=0;fontStyle=0;align=center;resizeLast=1;strokeColor=none;fillColor=default;collapsible=0;swimlaneFillColor=none;dropTarget=1;" parent="IExEv5vbONQzC7ZX7vnK-45" vertex="1">
                    <mxGeometry y="80" width="200" height="40" as="geometry"/>
                </mxCell>
                <mxCell id="IExEv5vbONQzC7ZX7vnK-51" value="" style="shape=tableRow;horizontal=0;startSize=0;swimlaneHead=0;swimlaneBody=0;fillColor=default;collapsible=0;dropTarget=0;points=[[0,0.5],[1,0.5]];portConstraint=eastwest;top=0;left=0;right=0;bottom=0;spacingLeft=0;spacingRight=0;strokeColor=default;rounded=0;shadow=0;sketch=0;swimlaneLine=1;" parent="IExEv5vbONQzC7ZX7vnK-50" vertex="1">
                    <mxGeometry width="200" height="40" as="geometry"/>
                </mxCell>
                <mxCell id="IExEv5vbONQzC7ZX7vnK-52" value="network_id" style="shape=partialRectangle;connectable=0;fillColor=none;top=0;left=0;bottom=0;right=0;editable=1;overflow=hidden;align=left;perimeterSpacing=1;spacingLeft=4;" parent="IExEv5vbONQzC7ZX7vnK-51" vertex="1">
                    <mxGeometry width="100" height="40" as="geometry">
                        <mxRectangle width="100" height="40" as="alternateBounds"/>
                    </mxGeometry>
                </mxCell>
                <mxCell id="IExEv5vbONQzC7ZX7vnK-53" value="uuid" style="shape=partialRectangle;connectable=0;fillColor=none;top=0;left=0;bottom=0;right=0;align=right;spacingLeft=0;overflow=hidden;spacingRight=4;" parent="IExEv5vbONQzC7ZX7vnK-51" vertex="1">
                    <mxGeometry x="100" width="100" height="40" as="geometry">
                        <mxRectangle width="100" height="40" as="alternateBounds"/>
                    </mxGeometry>
                </mxCell>
                <mxCell id="IExEv5vbONQzC7ZX7vnK-60" value="" style="shape=tableRow;horizontal=0;startSize=0;swimlaneHead=0;swimlaneBody=0;fillColor=none;collapsible=0;dropTarget=0;points=[[0,0.5],[1,0.5]];portConstraint=eastwest;top=0;left=0;right=0;bottom=0;spacingLeft=0;spacingRight=0;strokeColor=default;rounded=0;shadow=0;sketch=0;swimlaneLine=1;" parent="IExEv5vbONQzC7ZX7vnK-45" vertex="1">
                    <mxGeometry y="120" width="200" as="geometry"/>
                </mxCell>
                <mxCell id="IExEv5vbONQzC7ZX7vnK-65" style="edgeStyle=orthogonalEdgeStyle;rounded=0;orthogonalLoop=1;jettySize=auto;html=1;entryX=0;entryY=0.5;entryDx=0;entryDy=0;" parent="1" source="IExEv5vbONQzC7ZX7vnK-14" target="IExEv5vbONQzC7ZX7vnK-47" edge="1">
                    <mxGeometry relative="1" as="geometry"/>
                </mxCell>
                <mxCell id="IExEv5vbONQzC7ZX7vnK-67" style="edgeStyle=orthogonalEdgeStyle;rounded=0;orthogonalLoop=1;jettySize=auto;html=1;exitX=1;exitY=0.5;exitDx=0;exitDy=0;entryX=0;entryY=0.5;entryDx=0;entryDy=0;" parent="1" source="IExEv5vbONQzC7ZX7vnK-51" target="IExEv5vbONQzC7ZX7vnK-31" edge="1">
                    <mxGeometry relative="1" as="geometry"/>
                </mxCell>
                <mxCell id="KMIujWGuoNmX_fVta_UM-1" value="ip_addresses" style="swimlane;fontStyle=0;childLayout=stackLayout;horizontal=1;startSize=40;fillColor=default;horizontalStack=0;resizeParent=1;resizeParentMax=0;resizeLast=0;collapsible=1;marginBottom=0;" parent="1" vertex="1">
                    <mxGeometry x="1480" y="-410" width="200" height="200" as="geometry"/>
                </mxCell>
                <mxCell id="KMIujWGuoNmX_fVta_UM-2" value="" style="shape=table;startSize=0;container=1;collapsible=1;childLayout=tableLayout;fixedRows=1;rowLines=0;fontStyle=0;align=center;resizeLast=1;strokeColor=none;fillColor=default;collapsible=0;swimlaneFillColor=none;" parent="KMIujWGuoNmX_fVta_UM-1" vertex="1">
                    <mxGeometry y="40" width="200" height="40" as="geometry"/>
                </mxCell>
                <mxCell id="KMIujWGuoNmX_fVta_UM-3" value="" style="shape=tableRow;horizontal=0;startSize=0;swimlaneHead=0;swimlaneBody=0;fillColor=default;collapsible=0;dropTarget=0;points=[[0,0.5],[1,0.5]];portConstraint=eastwest;top=0;left=0;right=0;bottom=0;spacingLeft=0;spacingRight=0;strokeColor=default;rounded=0;shadow=0;sketch=0;swimlaneLine=1;" parent="KMIujWGuoNmX_fVta_UM-2" vertex="1">
                    <mxGeometry width="200" height="40" as="geometry"/>
                </mxCell>
                <mxCell id="KMIujWGuoNmX_fVta_UM-4" value="id" style="shape=partialRectangle;connectable=0;fillColor=none;top=0;left=0;bottom=0;right=0;editable=1;overflow=hidden;align=left;perimeterSpacing=0;spacingLeft=4;labelBorderColor=none;" parent="KMIujWGuoNmX_fVta_UM-3" vertex="1">
                    <mxGeometry width="100" height="40" as="geometry">
                        <mxRectangle width="100" height="40" as="alternateBounds"/>
                    </mxGeometry>
                </mxCell>
                <mxCell id="KMIujWGuoNmX_fVta_UM-5" value="uuid" style="shape=partialRectangle;connectable=0;fillColor=none;top=0;left=0;bottom=0;right=0;align=right;spacingLeft=0;overflow=hidden;spacingRight=4;" parent="KMIujWGuoNmX_fVta_UM-3" vertex="1">
                    <mxGeometry x="100" width="100" height="40" as="geometry">
                        <mxRectangle width="100" height="40" as="alternateBounds"/>
                    </mxGeometry>
                </mxCell>
                <mxCell id="KMIujWGuoNmX_fVta_UM-6" value="" style="shape=table;startSize=0;container=1;collapsible=1;childLayout=tableLayout;fixedRows=1;rowLines=0;fontStyle=0;align=center;resizeLast=1;strokeColor=none;fillColor=default;collapsible=0;swimlaneFillColor=none;dropTarget=1;" parent="KMIujWGuoNmX_fVta_UM-1" vertex="1">
                    <mxGeometry y="80" width="200" height="80" as="geometry"/>
                </mxCell>
                <mxCell id="KMIujWGuoNmX_fVta_UM-19" value="" style="shape=tableRow;horizontal=0;startSize=0;swimlaneHead=0;swimlaneBody=0;fillColor=default;collapsible=0;dropTarget=0;points=[[0,0.5],[1,0.5]];portConstraint=eastwest;top=0;left=0;right=0;bottom=0;spacingLeft=0;spacingRight=0;strokeColor=default;rounded=0;shadow=0;sketch=0;swimlaneLine=1;" parent="KMIujWGuoNmX_fVta_UM-6" vertex="1">
                    <mxGeometry width="200" height="40" as="geometry"/>
                </mxCell>
                <mxCell id="KMIujWGuoNmX_fVta_UM-20" value="network_id" style="shape=partialRectangle;connectable=0;fillColor=none;top=0;left=0;bottom=0;right=0;editable=1;overflow=hidden;align=left;perimeterSpacing=1;spacingLeft=4;" parent="KMIujWGuoNmX_fVta_UM-19" vertex="1">
                    <mxGeometry width="100" height="40" as="geometry">
                        <mxRectangle width="100" height="40" as="alternateBounds"/>
                    </mxGeometry>
                </mxCell>
                <mxCell id="KMIujWGuoNmX_fVta_UM-21" value="uuid" style="shape=partialRectangle;connectable=0;fillColor=none;top=0;left=0;bottom=0;right=0;align=right;spacingLeft=0;overflow=hidden;spacingRight=4;" parent="KMIujWGuoNmX_fVta_UM-19" vertex="1">
                    <mxGeometry x="100" width="100" height="40" as="geometry">
                        <mxRectangle width="100" height="40" as="alternateBounds"/>
                    </mxGeometry>
                </mxCell>
                <mxCell id="KMIujWGuoNmX_fVta_UM-7" value="" style="shape=tableRow;horizontal=0;startSize=0;swimlaneHead=0;swimlaneBody=0;fillColor=default;collapsible=0;dropTarget=0;points=[[0,0.5],[1,0.5]];portConstraint=eastwest;top=0;left=0;right=0;bottom=0;spacingLeft=0;spacingRight=0;strokeColor=default;rounded=0;shadow=0;sketch=0;swimlaneLine=1;" parent="KMIujWGuoNmX_fVta_UM-6" vertex="1">
                    <mxGeometry y="40" width="200" height="40" as="geometry"/>
                </mxCell>
                <mxCell id="KMIujWGuoNmX_fVta_UM-8" value="value" style="shape=partialRectangle;connectable=0;fillColor=none;top=0;left=0;bottom=0;right=0;editable=1;overflow=hidden;align=left;perimeterSpacing=1;spacingLeft=4;" parent="KMIujWGuoNmX_fVta_UM-7" vertex="1">
                    <mxGeometry width="100" height="40" as="geometry">
                        <mxRectangle width="100" height="40" as="alternateBounds"/>
                    </mxGeometry>
                </mxCell>
                <mxCell id="KMIujWGuoNmX_fVta_UM-9" value="uniq vchar(100)" style="shape=partialRectangle;connectable=0;fillColor=none;top=0;left=0;bottom=0;right=0;align=right;spacingLeft=0;overflow=hidden;spacingRight=4;" parent="KMIujWGuoNmX_fVta_UM-7" vertex="1">
                    <mxGeometry x="100" width="100" height="40" as="geometry">
                        <mxRectangle width="100" height="40" as="alternateBounds"/>
                    </mxGeometry>
                </mxCell>
                <mxCell id="KMIujWGuoNmX_fVta_UM-15" value="" style="shape=tableRow;horizontal=0;startSize=0;swimlaneHead=0;swimlaneBody=0;fillColor=default;collapsible=0;dropTarget=0;points=[[0,0.5],[1,0.5]];portConstraint=eastwest;top=0;left=0;right=0;bottom=0;spacingLeft=0;spacingRight=0;strokeColor=default;rounded=0;shadow=0;sketch=0;swimlaneLine=1;" parent="KMIujWGuoNmX_fVta_UM-1" vertex="1">
                    <mxGeometry y="160" width="200" height="40" as="geometry"/>
                </mxCell>
                <mxCell id="KMIujWGuoNmX_fVta_UM-16" value="type" style="shape=partialRectangle;connectable=0;fillColor=none;top=0;left=0;bottom=0;right=0;editable=1;overflow=hidden;align=left;perimeterSpacing=1;spacingLeft=4;" parent="KMIujWGuoNmX_fVta_UM-15" vertex="1">
                    <mxGeometry width="100" height="40" as="geometry">
                        <mxRectangle width="100" height="40" as="alternateBounds"/>
                    </mxGeometry>
                </mxCell>
                <mxCell id="KMIujWGuoNmX_fVta_UM-17" value="ipv4 | ipv6" style="shape=partialRectangle;connectable=0;fillColor=none;top=0;left=0;bottom=0;right=0;align=right;spacingLeft=0;overflow=hidden;spacingRight=4;" parent="KMIujWGuoNmX_fVta_UM-15" vertex="1">
                    <mxGeometry x="100" width="100" height="40" as="geometry">
                        <mxRectangle width="100" height="40" as="alternateBounds"/>
                    </mxGeometry>
                </mxCell>
                <mxCell id="KMIujWGuoNmX_fVta_UM-10" value="" style="shape=tableRow;horizontal=0;startSize=0;swimlaneHead=0;swimlaneBody=0;fillColor=none;collapsible=0;dropTarget=0;points=[[0,0.5],[1,0.5]];portConstraint=eastwest;top=0;left=0;right=0;bottom=0;spacingLeft=0;spacingRight=0;strokeColor=default;rounded=0;shadow=0;sketch=0;swimlaneLine=1;" parent="KMIujWGuoNmX_fVta_UM-1" vertex="1">
                    <mxGeometry y="200" width="200" as="geometry"/>
                </mxCell>
                <mxCell id="KMIujWGuoNmX_fVta_UM-22" style="edgeStyle=orthogonalEdgeStyle;rounded=0;orthogonalLoop=1;jettySize=auto;html=1;entryX=0;entryY=0.5;entryDx=0;entryDy=0;" parent="1" source="IExEv5vbONQzC7ZX7vnK-31" target="KMIujWGuoNmX_fVta_UM-19" edge="1">
                    <mxGeometry relative="1" as="geometry"/>
                </mxCell>
                <mxCell id="EYhqNaJftWTFuedgBaSu-14" value="clusters" style="swimlane;fontStyle=0;childLayout=stackLayout;horizontal=1;startSize=40;fillColor=default;horizontalStack=0;resizeParent=1;resizeParentMax=0;resizeLast=0;collapsible=1;marginBottom=0;" parent="1" vertex="1">
                    <mxGeometry x="960" y="480" width="200" height="200" as="geometry"/>
                </mxCell>
                <mxCell id="192" value="" style="shape=table;startSize=0;container=1;collapsible=1;childLayout=tableLayout;fixedRows=1;rowLines=0;fontStyle=0;align=center;resizeLast=1;strokeColor=none;fillColor=default;collapsible=0;swimlaneFillColor=none;" parent="EYhqNaJftWTFuedgBaSu-14" vertex="1">
                    <mxGeometry y="40" width="200" height="40" as="geometry"/>
                </mxCell>
                <mxCell id="193" value="" style="shape=tableRow;horizontal=0;startSize=0;swimlaneHead=0;swimlaneBody=0;fillColor=default;collapsible=0;dropTarget=0;points=[[0,0.5],[1,0.5]];portConstraint=eastwest;top=0;left=0;right=0;bottom=0;spacingLeft=0;spacingRight=0;strokeColor=default;rounded=0;shadow=0;sketch=0;swimlaneLine=1;" parent="192" vertex="1">
                    <mxGeometry width="200" height="40" as="geometry"/>
                </mxCell>
                <mxCell id="194" value="key" style="shape=partialRectangle;connectable=0;fillColor=none;top=0;left=0;bottom=0;right=0;editable=1;overflow=hidden;align=left;perimeterSpacing=0;spacingLeft=4;labelBorderColor=none;" parent="193" vertex="1">
                    <mxGeometry width="100" height="40" as="geometry">
                        <mxRectangle width="100" height="40" as="alternateBounds"/>
                    </mxGeometry>
                </mxCell>
                <mxCell id="195" value="vchar pk" style="shape=partialRectangle;connectable=0;fillColor=none;top=0;left=0;bottom=0;right=0;align=right;spacingLeft=0;overflow=hidden;spacingRight=4;" parent="193" vertex="1">
                    <mxGeometry x="100" width="100" height="40" as="geometry">
                        <mxRectangle width="100" height="40" as="alternateBounds"/>
                    </mxGeometry>
                </mxCell>
                <mxCell id="EYhqNaJftWTFuedgBaSu-15" value="" style="shape=table;startSize=0;container=1;collapsible=1;childLayout=tableLayout;fixedRows=1;rowLines=0;fontStyle=0;align=center;resizeLast=1;strokeColor=none;fillColor=default;collapsible=0;swimlaneFillColor=none;" parent="EYhqNaJftWTFuedgBaSu-14" vertex="1">
                    <mxGeometry y="80" width="200" height="80" as="geometry"/>
                </mxCell>
                <mxCell id="197" value="" style="shape=tableRow;horizontal=0;startSize=0;swimlaneHead=0;swimlaneBody=0;fillColor=default;collapsible=0;dropTarget=0;points=[[0,0.5],[1,0.5]];portConstraint=eastwest;top=0;left=0;right=0;bottom=0;spacingLeft=0;spacingRight=0;strokeColor=default;rounded=0;shadow=0;sketch=0;swimlaneLine=1;" parent="EYhqNaJftWTFuedgBaSu-15" vertex="1">
                    <mxGeometry width="200" height="40" as="geometry"/>
                </mxCell>
                <mxCell id="198" value="name" style="shape=partialRectangle;connectable=0;fillColor=none;top=0;left=0;bottom=0;right=0;editable=1;overflow=hidden;align=left;perimeterSpacing=0;spacingLeft=4;labelBorderColor=none;" parent="197" vertex="1">
                    <mxGeometry width="100" height="40" as="geometry">
                        <mxRectangle width="100" height="40" as="alternateBounds"/>
                    </mxGeometry>
                </mxCell>
                <mxCell id="199" value="vchar(100)" style="shape=partialRectangle;connectable=0;fillColor=none;top=0;left=0;bottom=0;right=0;align=right;spacingLeft=0;overflow=hidden;spacingRight=4;" parent="197" vertex="1">
                    <mxGeometry x="100" width="100" height="40" as="geometry">
                        <mxRectangle width="100" height="40" as="alternateBounds"/>
                    </mxGeometry>
                </mxCell>
                <mxCell id="EYhqNaJftWTFuedgBaSu-16" value="" style="shape=tableRow;horizontal=0;startSize=0;swimlaneHead=0;swimlaneBody=0;fillColor=default;collapsible=0;dropTarget=0;points=[[0,0.5],[1,0.5]];portConstraint=eastwest;top=0;left=0;right=0;bottom=0;spacingLeft=0;spacingRight=0;strokeColor=default;rounded=0;shadow=0;sketch=0;swimlaneLine=1;" parent="EYhqNaJftWTFuedgBaSu-15" vertex="1">
                    <mxGeometry y="40" width="200" height="40" as="geometry"/>
                </mxCell>
                <mxCell id="EYhqNaJftWTFuedgBaSu-17" value="namespace" style="shape=partialRectangle;connectable=0;fillColor=none;top=0;left=0;bottom=0;right=0;editable=1;overflow=hidden;align=left;perimeterSpacing=0;spacingLeft=4;labelBorderColor=none;" parent="EYhqNaJftWTFuedgBaSu-16" vertex="1">
                    <mxGeometry width="100" height="40" as="geometry">
                        <mxRectangle width="100" height="40" as="alternateBounds"/>
                    </mxGeometry>
                </mxCell>
                <mxCell id="EYhqNaJftWTFuedgBaSu-18" value="vchar(100)" style="shape=partialRectangle;connectable=0;fillColor=none;top=0;left=0;bottom=0;right=0;align=right;spacingLeft=0;overflow=hidden;spacingRight=4;" parent="EYhqNaJftWTFuedgBaSu-16" vertex="1">
                    <mxGeometry x="100" width="100" height="40" as="geometry">
                        <mxRectangle width="100" height="40" as="alternateBounds"/>
                    </mxGeometry>
                </mxCell>
                <mxCell id="201" value="" style="shape=tableRow;horizontal=0;startSize=0;swimlaneHead=0;swimlaneBody=0;fillColor=default;collapsible=0;dropTarget=0;points=[[0,0.5],[1,0.5]];portConstraint=eastwest;top=0;left=0;right=0;bottom=0;spacingLeft=0;spacingRight=0;strokeColor=default;rounded=0;shadow=0;sketch=0;swimlaneLine=1;" parent="EYhqNaJftWTFuedgBaSu-14" vertex="1">
                    <mxGeometry y="160" width="200" height="40" as="geometry"/>
                </mxCell>
                <mxCell id="202" value="networks" style="shape=partialRectangle;connectable=0;fillColor=none;top=0;left=0;bottom=0;right=0;editable=1;overflow=hidden;align=left;perimeterSpacing=0;spacingLeft=4;labelBorderColor=none;" parent="201" vertex="1">
                    <mxGeometry width="100" height="40" as="geometry">
                        <mxRectangle width="100" height="40" as="alternateBounds"/>
                    </mxGeometry>
                </mxCell>
                <mxCell id="203" value="vchar(100)" style="shape=partialRectangle;connectable=0;fillColor=none;top=0;left=0;bottom=0;right=0;align=right;spacingLeft=0;overflow=hidden;spacingRight=4;" parent="201" vertex="1">
                    <mxGeometry x="100" width="100" height="40" as="geometry">
                        <mxRectangle width="100" height="40" as="alternateBounds"/>
                    </mxGeometry>
                </mxCell>
                <mxCell id="EYhqNaJftWTFuedgBaSu-23" value="" style="shape=tableRow;horizontal=0;startSize=0;swimlaneHead=0;swimlaneBody=0;fillColor=none;collapsible=0;dropTarget=0;points=[[0,0.5],[1,0.5]];portConstraint=eastwest;top=0;left=0;right=0;bottom=0;spacingLeft=0;spacingRight=0;strokeColor=default;rounded=0;shadow=0;sketch=0;swimlaneLine=1;" parent="EYhqNaJftWTFuedgBaSu-14" vertex="1">
                    <mxGeometry y="200" width="200" as="geometry"/>
                </mxCell>
                <mxCell id="EYhqNaJftWTFuedgBaSu-59" value="namespace_docktron" style="swimlane;startSize=40;" parent="1" vertex="1">
                    <mxGeometry x="-920" y="200" width="720" height="440" as="geometry"/>
                </mxCell>
                <mxCell id="EYhqNaJftWTFuedgBaSu-64" value="cluster_development" style="swimlane;startSize=40;" parent="EYhqNaJftWTFuedgBaSu-59" vertex="1">
                    <mxGeometry y="40" width="720" height="400" as="geometry"/>
                </mxCell>
                <mxCell id="EYhqNaJftWTFuedgBaSu-91" value="network_frontend" style="swimlane;startSize=30;" parent="EYhqNaJftWTFuedgBaSu-64" vertex="1">
                    <mxGeometry x="40" y="200" width="200" height="120" as="geometry"/>
                </mxCell>
                <mxCell id="EYhqNaJftWTFuedgBaSu-92" value="Cargo" style="swimlane;sketch=0;startSize=30;" parent="EYhqNaJftWTFuedgBaSu-91" vertex="1">
                    <mxGeometry y="30" width="100" height="90" as="geometry">
                        <mxRectangle x="10" y="30" width="70" height="30" as="alternateBounds"/>
                    </mxGeometry>
                </mxCell>
                <mxCell id="EYhqNaJftWTFuedgBaSu-93" value="dashboard" style="rounded=0;whiteSpace=wrap;html=1;sketch=0;container=0;" parent="EYhqNaJftWTFuedgBaSu-92" vertex="1">
                    <mxGeometry y="30" width="100" height="60" as="geometry"/>
                </mxCell>
                <mxCell id="EYhqNaJftWTFuedgBaSu-94" value="Cargo" style="swimlane;sketch=0;startSize=30;" parent="EYhqNaJftWTFuedgBaSu-91" vertex="1">
                    <mxGeometry x="100" y="30" width="100" height="90" as="geometry"/>
                </mxCell>
                <mxCell id="EYhqNaJftWTFuedgBaSu-95" value="landing" style="rounded=0;whiteSpace=wrap;html=1;sketch=0;container=0;" parent="EYhqNaJftWTFuedgBaSu-94" vertex="1">
                    <mxGeometry y="30" width="100" height="60" as="geometry"/>
                </mxCell>
                <mxCell id="EYhqNaJftWTFuedgBaSu-96" value="network_backend" style="swimlane;startSize=30;" parent="EYhqNaJftWTFuedgBaSu-64" vertex="1">
                    <mxGeometry x="440" y="200" width="200" height="120" as="geometry"/>
                </mxCell>
                <mxCell id="EYhqNaJftWTFuedgBaSu-97" value="Cargo" style="swimlane;sketch=0;startSize=30;" parent="EYhqNaJftWTFuedgBaSu-96" vertex="1">
                    <mxGeometry y="30" width="100" height="90" as="geometry">
                        <mxRectangle x="10" y="30" width="70" height="30" as="alternateBounds"/>
                    </mxGeometry>
                </mxCell>
                <mxCell id="EYhqNaJftWTFuedgBaSu-98" value="api" style="rounded=0;whiteSpace=wrap;html=1;sketch=0;container=0;" parent="EYhqNaJftWTFuedgBaSu-97" vertex="1">
                    <mxGeometry y="30" width="100" height="60" as="geometry"/>
                </mxCell>
                <mxCell id="EYhqNaJftWTFuedgBaSu-99" value="Cargo" style="swimlane;sketch=0;startSize=30;" parent="EYhqNaJftWTFuedgBaSu-96" vertex="1">
                    <mxGeometry x="100" y="30" width="100" height="90" as="geometry"/>
                </mxCell>
                <mxCell id="EYhqNaJftWTFuedgBaSu-100" value="mongodb" style="rounded=0;whiteSpace=wrap;html=1;sketch=0;container=0;" parent="EYhqNaJftWTFuedgBaSu-99" vertex="1">
                    <mxGeometry y="30" width="100" height="60" as="geometry"/>
                </mxCell>
                <mxCell id="EYhqNaJftWTFuedgBaSu-114" value="dev.docktron.org" style="whiteSpace=wrap;html=1;sketch=0;" parent="EYhqNaJftWTFuedgBaSu-64" vertex="1">
                    <mxGeometry x="295" y="80" width="120" height="60" as="geometry"/>
                </mxCell>
                <mxCell id="EYhqNaJftWTFuedgBaSu-76" value="git_repository" style="swimlane;sketch=0;startSize=30;" parent="1" vertex="1">
                    <mxGeometry x="-1980" y="320" width="240" height="120" as="geometry"/>
                </mxCell>
                <mxCell id="EYhqNaJftWTFuedgBaSu-77" value="docktron-api" style="rounded=0;whiteSpace=wrap;html=1;sketch=0;container=0;imageWidth=24;recursiveResize=1;" parent="EYhqNaJftWTFuedgBaSu-76" vertex="1">
                    <mxGeometry y="30" width="240" height="90" as="geometry"/>
                </mxCell>
                <mxCell id="EYhqNaJftWTFuedgBaSu-84" style="edgeStyle=orthogonalEdgeStyle;rounded=0;orthogonalLoop=1;jettySize=auto;html=1;exitX=0.5;exitY=1;exitDx=0;exitDy=0;exitPerimeter=0;entryX=0.5;entryY=0;entryDx=0;entryDy=0;" parent="1" source="EYhqNaJftWTFuedgBaSu-81" target="EYhqNaJftWTFuedgBaSu-83" edge="1">
                    <mxGeometry relative="1" as="geometry"/>
                </mxCell>
                <mxCell id="EYhqNaJftWTFuedgBaSu-109" style="edgeStyle=orthogonalEdgeStyle;rounded=0;orthogonalLoop=1;jettySize=auto;html=1;exitX=0.5;exitY=0;exitDx=0;exitDy=0;exitPerimeter=0;entryX=0.5;entryY=1;entryDx=0;entryDy=0;" parent="1" source="EYhqNaJftWTFuedgBaSu-81" target="EYhqNaJftWTFuedgBaSu-90" edge="1">
                    <mxGeometry relative="1" as="geometry"/>
                </mxCell>
                <mxCell id="EYhqNaJftWTFuedgBaSu-81" value="Hook" style="strokeWidth=2;html=1;shape=mxgraph.flowchart.decision;whiteSpace=wrap;sketch=0;" parent="1" vertex="1">
                    <mxGeometry x="-1460" y="360" width="80" height="80" as="geometry"/>
                </mxCell>
                <mxCell id="EYhqNaJftWTFuedgBaSu-113" style="edgeStyle=orthogonalEdgeStyle;rounded=0;orthogonalLoop=1;jettySize=auto;html=1;exitX=0.5;exitY=1;exitDx=0;exitDy=0;entryX=0.5;entryY=0;entryDx=0;entryDy=0;" parent="1" source="EYhqNaJftWTFuedgBaSu-83" target="EYhqNaJftWTFuedgBaSu-112" edge="1">
                    <mxGeometry relative="1" as="geometry"/>
                </mxCell>
                <mxCell id="EYhqNaJftWTFuedgBaSu-83" value="pull_request&lt;br&gt;open" style="rounded=0;whiteSpace=wrap;html=1;sketch=0;" parent="1" vertex="1">
                    <mxGeometry x="-1480" y="560" width="120" height="60" as="geometry"/>
                </mxCell>
                <mxCell id="EYhqNaJftWTFuedgBaSu-90" value="push" style="rounded=0;whiteSpace=wrap;html=1;sketch=0;" parent="1" vertex="1">
                    <mxGeometry x="-1480" y="160" width="120" height="60" as="geometry"/>
                </mxCell>
                <mxCell id="EYhqNaJftWTFuedgBaSu-107" value="VPN" style="swimlane;sketch=0;startSize=30;" parent="1" vertex="1">
                    <mxGeometry x="-120" y="400" width="200" height="120" as="geometry"/>
                </mxCell>
                <mxCell id="EYhqNaJftWTFuedgBaSu-108" value="STRONSWAN" style="whiteSpace=wrap;html=1;sketch=0;" parent="1" vertex="1">
                    <mxGeometry x="-120" y="430" width="200" height="90" as="geometry"/>
                </mxCell>
                <mxCell id="EYhqNaJftWTFuedgBaSu-112" value="branch_name" style="whiteSpace=wrap;html=1;sketch=0;" parent="1" vertex="1">
                    <mxGeometry x="-1480" y="760" width="120" height="60" as="geometry"/>
                </mxCell>
                <mxCell id="bPS0F4FVt17oidj1hFmh-2" style="edgeStyle=orthogonalEdgeStyle;rounded=0;orthogonalLoop=1;jettySize=auto;html=1;exitX=1;exitY=0.5;exitDx=0;exitDy=0;entryX=-0.015;entryY=0.501;entryDx=0;entryDy=0;entryPerimeter=0;" parent="1" source="EYhqNaJftWTFuedgBaSu-77" target="EYhqNaJftWTFuedgBaSu-81" edge="1">
                    <mxGeometry relative="1" as="geometry">
                        <Array as="points">
                            <mxPoint x="-1740" y="400"/>
                            <mxPoint x="-1600" y="400"/>
                        </Array>
                    </mxGeometry>
                </mxCell>
                <mxCell id="42" style="edgeStyle=none;html=1;entryX=1;entryY=0.25;entryDx=0;entryDy=0;exitX=0;exitY=0.5;exitDx=0;exitDy=0;fillColor=#60a917;strokeColor=#2D7600;rounded=1;strokeWidth=2;" parent="1" source="bPS0F4FVt17oidj1hFmh-22" target="41" edge="1">
                    <mxGeometry relative="1" as="geometry">
                        <mxPoint x="40" y="1145" as="sourcePoint"/>
                    </mxGeometry>
                </mxCell>
                <mxCell id="101" style="edgeStyle=none;html=1;exitX=0;exitY=0.75;exitDx=0;exitDy=0;entryX=1;entryY=0.25;entryDx=0;entryDy=0;strokeWidth=2;fillColor=#e3c800;strokeColor=#B09500;" parent="1" source="bPS0F4FVt17oidj1hFmh-22" target="41" edge="1">
                    <mxGeometry relative="1" as="geometry"/>
                </mxCell>
                <mxCell id="bPS0F4FVt17oidj1hFmh-22" value="developers&lt;br&gt;devops&lt;br&gt;product owner" style="rounded=0;whiteSpace=wrap;html=1;" parent="1" vertex="1">
                    <mxGeometry x="200" y="960" width="196.85" height="196.85" as="geometry"/>
                </mxCell>
                <mxCell id="41" value="physical host" style="swimlane;startSize=60;" parent="1" vertex="1">
                    <mxGeometry x="-800" y="1040" width="600" height="400" as="geometry"/>
                </mxCell>
                <mxCell id="44" style="edgeStyle=none;html=1;exitX=0.5;exitY=1;exitDx=0;exitDy=0;entryX=0.5;entryY=0;entryDx=0;entryDy=0;fillColor=#60a917;strokeColor=#2D7600;strokeWidth=2;" parent="41" source="bPS0F4FVt17oidj1hFmh-12" target="bPS0F4FVt17oidj1hFmh-11" edge="1">
                    <mxGeometry relative="1" as="geometry"/>
                </mxCell>
                <mxCell id="53" style="edgeStyle=none;html=1;exitX=0;exitY=0.5;exitDx=0;exitDy=0;entryX=1;entryY=0.5;entryDx=0;entryDy=0;fillColor=#d80073;strokeColor=#A50040;strokeWidth=2;" parent="41" source="bPS0F4FVt17oidj1hFmh-12" target="51" edge="1">
                    <mxGeometry relative="1" as="geometry"/>
                </mxCell>
                <mxCell id="103" style="edgeStyle=none;html=1;exitX=0.75;exitY=1;exitDx=0;exitDy=0;entryX=0.75;entryY=0;entryDx=0;entryDy=0;strokeWidth=2;fillColor=#e3c800;strokeColor=#B09500;" parent="41" source="bPS0F4FVt17oidj1hFmh-12" target="bPS0F4FVt17oidj1hFmh-11" edge="1">
                    <mxGeometry relative="1" as="geometry"/>
                </mxCell>
                <mxCell id="bPS0F4FVt17oidj1hFmh-12" value="dns" style="rounded=0;whiteSpace=wrap;html=1;" parent="41" vertex="1">
                    <mxGeometry x="480" y="180" width="118.11" height="78.74" as="geometry"/>
                </mxCell>
                <mxCell id="46" style="edgeStyle=none;html=1;exitX=0;exitY=0.5;exitDx=0;exitDy=0;entryX=1;entryY=1;entryDx=0;entryDy=0;strokeWidth=2;fillColor=#60a917;strokeColor=#2D7600;" parent="41" source="bPS0F4FVt17oidj1hFmh-11" target="45" edge="1">
                    <mxGeometry relative="1" as="geometry"/>
                </mxCell>
                <mxCell id="54" style="edgeStyle=none;html=1;exitX=0;exitY=0;exitDx=0;exitDy=0;entryX=1;entryY=1;entryDx=0;entryDy=0;strokeWidth=2;fillColor=#d80073;strokeColor=#A50040;" parent="41" source="bPS0F4FVt17oidj1hFmh-11" target="51" edge="1">
                    <mxGeometry relative="1" as="geometry"/>
                </mxCell>
                <mxCell id="105" style="edgeStyle=none;html=1;exitX=0;exitY=0.5;exitDx=0;exitDy=0;entryX=1;entryY=0.5;entryDx=0;entryDy=0;fontColor=#FFFFFF;strokeWidth=2;fillColor=#e3c800;strokeColor=#B09500;" parent="41" source="bPS0F4FVt17oidj1hFmh-11" target="50" edge="1">
                    <mxGeometry relative="1" as="geometry"/>
                </mxCell>
                <mxCell id="bPS0F4FVt17oidj1hFmh-11" value="proxy" style="rounded=0;whiteSpace=wrap;html=1;" parent="41" vertex="1">
                    <mxGeometry x="480" y="300" width="118.11" height="78.74" as="geometry"/>
                </mxCell>
                <mxCell id="43" style="edgeStyle=none;html=1;exitX=0.5;exitY=1;exitDx=0;exitDy=0;entryX=0.5;entryY=0;entryDx=0;entryDy=0;fillColor=#60a917;strokeColor=#2D7600;strokeWidth=2;" parent="41" source="bPS0F4FVt17oidj1hFmh-20" target="bPS0F4FVt17oidj1hFmh-12" edge="1">
                    <mxGeometry relative="1" as="geometry"/>
                </mxCell>
                <mxCell id="52" style="edgeStyle=none;html=1;exitX=0;exitY=1;exitDx=0;exitDy=0;entryX=1;entryY=0;entryDx=0;entryDy=0;fillColor=#d80073;strokeColor=#A50040;strokeWidth=2;" parent="41" source="bPS0F4FVt17oidj1hFmh-20" target="51" edge="1">
                    <mxGeometry relative="1" as="geometry"/>
                </mxCell>
                <mxCell id="102" style="edgeStyle=none;html=1;exitX=0.75;exitY=1;exitDx=0;exitDy=0;entryX=0.75;entryY=0;entryDx=0;entryDy=0;strokeWidth=2;fillColor=#e3c800;strokeColor=#B09500;" parent="41" source="bPS0F4FVt17oidj1hFmh-20" target="bPS0F4FVt17oidj1hFmh-12" edge="1">
                    <mxGeometry relative="1" as="geometry"/>
                </mxCell>
                <mxCell id="bPS0F4FVt17oidj1hFmh-20" value="vpn" style="rounded=0;whiteSpace=wrap;html=1;" parent="41" vertex="1">
                    <mxGeometry x="480" y="60" width="118.11" height="78.74" as="geometry"/>
                </mxCell>
                <mxCell id="45" value="containerized&lt;br&gt;app/service" style="rounded=0;whiteSpace=wrap;html=1;" parent="41" vertex="1">
                    <mxGeometry x="40" y="240" width="120" height="60" as="geometry"/>
                </mxCell>
                <mxCell id="47" value="containerized&lt;br&gt;app/service" style="rounded=0;whiteSpace=wrap;html=1;" parent="41" vertex="1">
                    <mxGeometry x="40" y="300" width="120" height="60" as="geometry"/>
                </mxCell>
                <mxCell id="106" style="edgeStyle=none;html=1;exitX=0;exitY=1;exitDx=0;exitDy=0;entryX=1;entryY=0;entryDx=0;entryDy=0;fontColor=#FFFFFF;strokeWidth=2;fillColor=#e3c800;strokeColor=#B09500;" parent="41" source="50" target="45" edge="1">
                    <mxGeometry relative="1" as="geometry"/>
                </mxCell>
                <mxCell id="50" value="nanocld&lt;br&gt;(daemon)" style="rounded=0;whiteSpace=wrap;html=1;" parent="41" vertex="1">
                    <mxGeometry x="170" y="130" width="120" height="60" as="geometry"/>
                </mxCell>
                <mxCell id="104" style="edgeStyle=none;html=1;exitX=0;exitY=0.5;exitDx=0;exitDy=0;entryX=1;entryY=0.5;entryDx=0;entryDy=0;strokeWidth=2;fillColor=#1ba1e2;strokeColor=#006EAF;" parent="41" source="51" target="50" edge="1">
                    <mxGeometry relative="1" as="geometry"/>
                </mxCell>
                <mxCell id="51" value="logs" style="rounded=0;whiteSpace=wrap;html=1;" parent="41" vertex="1">
                    <mxGeometry x="360" y="160" width="40" height="40" as="geometry"/>
                </mxCell>
                <mxCell id="91" value="postgre" style="rounded=0;whiteSpace=wrap;html=1;" parent="41" vertex="1">
                    <mxGeometry y="60" width="118.11" height="78.74" as="geometry"/>
                </mxCell>
                <mxCell id="49" style="edgeStyle=none;html=1;exitX=0;exitY=0.5;exitDx=0;exitDy=0;entryX=1;entryY=0.5;entryDx=0;entryDy=0;strokeWidth=2;fillColor=#60a917;strokeColor=#2D7600;" parent="1" source="48" target="bPS0F4FVt17oidj1hFmh-11" edge="1">
                    <mxGeometry relative="1" as="geometry"/>
                </mxCell>
                <mxCell id="48" value="INTERNET" style="rounded=0;whiteSpace=wrap;html=1;" parent="1" vertex="1">
                    <mxGeometry x="200" y="1360" width="196.85" height="196.85" as="geometry"/>
                </mxCell>
                <mxCell id="57" value="REQUEST" style="rounded=0;whiteSpace=wrap;html=1;fillColor=#60a917;fontColor=#ffffff;strokeColor=#2D7600;" parent="1" vertex="1">
                    <mxGeometry x="-400" y="960" width="160" height="39.37" as="geometry"/>
                </mxCell>
                <mxCell id="92" value="WRITE" style="rounded=0;whiteSpace=wrap;html=1;fillColor=#d80073;fontColor=#ffffff;strokeColor=#A50040;" parent="1" vertex="1">
                    <mxGeometry x="-800" y="960" width="160" height="39.37" as="geometry"/>
                </mxCell>
                <mxCell id="94" style="edgeStyle=none;html=1;exitX=0;exitY=0.5;exitDx=0;exitDy=0;strokeWidth=2;fillColor=#d80073;strokeColor=#A50040;" parent="1" source="50" edge="1">
                    <mxGeometry relative="1" as="geometry">
                        <mxPoint x="-680" y="1180" as="targetPoint"/>
                    </mxGeometry>
                </mxCell>
                <mxCell id="95" value="READ" style="rounded=0;whiteSpace=wrap;html=1;fillColor=#1ba1e2;fontColor=#ffffff;strokeColor=#006EAF;" parent="1" vertex="1">
                    <mxGeometry x="-600" y="960" width="160" height="39.37" as="geometry"/>
                </mxCell>
                <mxCell id="98" value="DEPLOY UPDATE OR TEST" style="rounded=0;whiteSpace=wrap;html=1;fillColor=#e3c800;fontColor=#FFFFFF;strokeColor=#B09500;" parent="1" vertex="1">
                    <mxGeometry x="-200" y="960" width="160" height="39.37" as="geometry"/>
                </mxCell>
                <mxCell id="100" style="edgeStyle=none;html=1;exitX=0;exitY=0;exitDx=0;exitDy=0;entryX=1;entryY=0.5;entryDx=0;entryDy=0;strokeWidth=2;fillColor=#e3c800;strokeColor=#B09500;" parent="1" source="99" target="bPS0F4FVt17oidj1hFmh-11" edge="1">
                    <mxGeometry relative="1" as="geometry"/>
                </mxCell>
                <mxCell id="99" value="GIT HOOK" style="rounded=0;whiteSpace=wrap;html=1;" parent="1" vertex="1">
                    <mxGeometry x="10" y="1630" width="196.85" height="196.85" as="geometry"/>
                </mxCell>
                <mxCell id="124" value="cargoes" style="swimlane;fontStyle=0;childLayout=stackLayout;horizontal=1;startSize=40;fillColor=default;horizontalStack=0;resizeParent=1;resizeParentMax=0;resizeLast=0;collapsible=1;marginBottom=0;" parent="1" vertex="1">
                    <mxGeometry x="960" y="-40" width="250" height="320" as="geometry"/>
                </mxCell>
                <mxCell id="125" value="" style="shape=table;startSize=0;container=1;collapsible=1;childLayout=tableLayout;fixedRows=1;rowLines=0;fontStyle=0;align=center;resizeLast=1;strokeColor=none;fillColor=default;collapsible=0;swimlaneFillColor=none;" parent="124" vertex="1">
                    <mxGeometry y="40" width="250" height="40" as="geometry"/>
                </mxCell>
                <mxCell id="126" value="" style="shape=tableRow;horizontal=0;startSize=0;swimlaneHead=0;swimlaneBody=0;fillColor=default;collapsible=0;dropTarget=0;points=[[0,0.5],[1,0.5]];portConstraint=eastwest;top=0;left=0;right=0;bottom=0;spacingLeft=0;spacingRight=0;strokeColor=default;rounded=0;shadow=0;sketch=0;swimlaneLine=1;" parent="125" vertex="1">
                    <mxGeometry width="250" height="40" as="geometry"/>
                </mxCell>
                <mxCell id="127" value="id" style="shape=partialRectangle;connectable=0;fillColor=none;top=0;left=0;bottom=0;right=0;editable=1;overflow=hidden;align=left;perimeterSpacing=0;spacingLeft=4;labelBorderColor=none;" parent="126" vertex="1">
                    <mxGeometry width="100" height="40" as="geometry">
                        <mxRectangle width="100" height="40" as="alternateBounds"/>
                    </mxGeometry>
                </mxCell>
                <mxCell id="128" value=" pk uuid" style="shape=partialRectangle;connectable=0;fillColor=none;top=0;left=0;bottom=0;right=0;align=right;spacingLeft=0;overflow=hidden;spacingRight=4;" parent="126" vertex="1">
                    <mxGeometry x="100" width="150" height="40" as="geometry">
                        <mxRectangle width="150" height="40" as="alternateBounds"/>
                    </mxGeometry>
                </mxCell>
                <mxCell id="155" value="" style="shape=tableRow;horizontal=0;startSize=0;swimlaneHead=0;swimlaneBody=0;fillColor=default;collapsible=0;dropTarget=0;points=[[0,0.5],[1,0.5]];portConstraint=eastwest;top=0;left=0;right=0;bottom=0;spacingLeft=0;spacingRight=0;strokeColor=default;rounded=0;shadow=0;sketch=0;swimlaneLine=1;" parent="124" vertex="1">
                    <mxGeometry y="80" width="250" height="40" as="geometry"/>
                </mxCell>
                <mxCell id="156" value="name" style="shape=partialRectangle;connectable=0;fillColor=none;top=0;left=0;bottom=0;right=0;editable=1;overflow=hidden;align=left;perimeterSpacing=1;spacingLeft=4;" parent="155" vertex="1">
                    <mxGeometry width="100" height="40" as="geometry">
                        <mxRectangle width="100" height="40" as="alternateBounds"/>
                    </mxGeometry>
                </mxCell>
                <mxCell id="157" value="vchar(100)" style="shape=partialRectangle;connectable=0;fillColor=none;top=0;left=0;bottom=0;right=0;align=right;spacingLeft=0;overflow=hidden;spacingRight=4;" parent="155" vertex="1">
                    <mxGeometry x="100" width="150" height="40" as="geometry">
                        <mxRectangle width="100" height="40" as="alternateBounds"/>
                    </mxGeometry>
                </mxCell>
                <mxCell id="133" value="" style="shape=tableRow;horizontal=0;startSize=0;swimlaneHead=0;swimlaneBody=0;fillColor=none;collapsible=0;dropTarget=0;points=[[0,0.5],[1,0.5]];portConstraint=eastwest;top=0;left=0;right=0;bottom=0;spacingLeft=0;spacingRight=0;strokeColor=default;rounded=0;shadow=0;sketch=0;swimlaneLine=1;" parent="124" vertex="1">
                    <mxGeometry y="120" width="250" as="geometry"/>
                </mxCell>
                <mxCell id="161" value="" style="shape=tableRow;horizontal=0;startSize=0;swimlaneHead=0;swimlaneBody=0;fillColor=default;collapsible=0;dropTarget=0;points=[[0,0.5],[1,0.5]];portConstraint=eastwest;top=0;left=0;right=0;bottom=0;spacingLeft=0;spacingRight=0;strokeColor=default;rounded=0;shadow=0;sketch=0;swimlaneLine=1;" parent="124" vertex="1">
                    <mxGeometry y="120" width="250" height="40" as="geometry"/>
                </mxCell>
                <mxCell id="162" value="git_repository_name" style="shape=partialRectangle;connectable=0;fillColor=none;top=0;left=0;bottom=0;right=0;editable=1;overflow=hidden;align=left;perimeterSpacing=1;spacingLeft=4;" parent="161" vertex="1">
                    <mxGeometry width="130" height="40" as="geometry">
                        <mxRectangle width="100" height="40" as="alternateBounds"/>
                    </mxGeometry>
                </mxCell>
                <mxCell id="163" value="vchar(100)" style="shape=partialRectangle;connectable=0;fillColor=none;top=0;left=0;bottom=0;right=0;align=right;spacingLeft=0;overflow=hidden;spacingRight=4;" parent="161" vertex="1">
                    <mxGeometry x="130" width="120" height="40" as="geometry">
                        <mxRectangle width="100" height="40" as="alternateBounds"/>
                    </mxGeometry>
                </mxCell>
                <mxCell id="158" value="" style="shape=tableRow;horizontal=0;startSize=0;swimlaneHead=0;swimlaneBody=0;fillColor=default;collapsible=0;dropTarget=0;points=[[0,0.5],[1,0.5]];portConstraint=eastwest;top=0;left=0;right=0;bottom=0;spacingLeft=0;spacingRight=0;strokeColor=default;rounded=0;shadow=0;sketch=0;swimlaneLine=1;" parent="124" vertex="1">
                    <mxGeometry y="160" width="250" height="40" as="geometry"/>
                </mxCell>
                <mxCell id="159" value="namespace" style="shape=partialRectangle;connectable=0;fillColor=none;top=0;left=0;bottom=0;right=0;editable=1;overflow=hidden;align=left;perimeterSpacing=1;spacingLeft=4;" parent="158" vertex="1">
                    <mxGeometry width="100" height="40" as="geometry">
                        <mxRectangle width="100" height="40" as="alternateBounds"/>
                    </mxGeometry>
                </mxCell>
                <mxCell id="160" value="cluster" style="shape=partialRectangle;connectable=0;fillColor=none;top=0;left=0;bottom=0;right=0;align=right;spacingLeft=0;overflow=hidden;spacingRight=4;" parent="158" vertex="1">
                    <mxGeometry x="100" width="150" height="40" as="geometry">
                        <mxRectangle width="100" height="40" as="alternateBounds"/>
                    </mxGeometry>
                </mxCell>
                <mxCell id="164" value="" style="shape=tableRow;horizontal=0;startSize=0;swimlaneHead=0;swimlaneBody=0;fillColor=default;collapsible=0;dropTarget=0;points=[[0,0.5],[1,0.5]];portConstraint=eastwest;top=0;left=0;right=0;bottom=0;spacingLeft=0;spacingRight=0;strokeColor=default;rounded=0;shadow=0;sketch=0;swimlaneLine=1;" parent="124" vertex="1">
                    <mxGeometry y="200" width="250" height="40" as="geometry"/>
                </mxCell>
                <mxCell id="165" value="image_name" style="shape=partialRectangle;connectable=0;fillColor=none;top=0;left=0;bottom=0;right=0;editable=1;overflow=hidden;align=left;perimeterSpacing=1;spacingLeft=4;" parent="164" vertex="1">
                    <mxGeometry width="100" height="40" as="geometry">
                        <mxRectangle width="100" height="40" as="alternateBounds"/>
                    </mxGeometry>
                </mxCell>
                <mxCell id="166" value="vchar(100)" style="shape=partialRectangle;connectable=0;fillColor=none;top=0;left=0;bottom=0;right=0;align=right;spacingLeft=0;overflow=hidden;spacingRight=4;" parent="164" vertex="1">
                    <mxGeometry x="100" width="150" height="40" as="geometry">
                        <mxRectangle width="100" height="40" as="alternateBounds"/>
                    </mxGeometry>
                </mxCell>
                <mxCell id="257" value="" style="shape=tableRow;horizontal=0;startSize=0;swimlaneHead=0;swimlaneBody=0;fillColor=default;collapsible=0;dropTarget=0;points=[[0,0.5],[1,0.5]];portConstraint=eastwest;top=0;left=0;right=0;bottom=0;spacingLeft=0;spacingRight=0;strokeColor=default;rounded=0;shadow=0;sketch=0;swimlaneLine=1;" parent="124" vertex="1">
                    <mxGeometry y="240" width="250" height="40" as="geometry"/>
                </mxCell>
                <mxCell id="258" value="network_name" style="shape=partialRectangle;connectable=0;fillColor=none;top=0;left=0;bottom=0;right=0;editable=1;overflow=hidden;align=left;perimeterSpacing=1;spacingLeft=4;" parent="257" vertex="1">
                    <mxGeometry width="100" height="40" as="geometry">
                        <mxRectangle width="100" height="40" as="alternateBounds"/>
                    </mxGeometry>
                </mxCell>
                <mxCell id="259" value="vchar(100)" style="shape=partialRectangle;connectable=0;fillColor=none;top=0;left=0;bottom=0;right=0;align=right;spacingLeft=0;overflow=hidden;spacingRight=4;" parent="257" vertex="1">
                    <mxGeometry x="100" width="150" height="40" as="geometry">
                        <mxRectangle width="100" height="40" as="alternateBounds"/>
                    </mxGeometry>
                </mxCell>
                <mxCell id="167" value="" style="shape=tableRow;horizontal=0;startSize=0;swimlaneHead=0;swimlaneBody=0;fillColor=default;collapsible=0;dropTarget=0;points=[[0,0.5],[1,0.5]];portConstraint=eastwest;top=0;left=0;right=0;bottom=0;spacingLeft=0;spacingRight=0;strokeColor=default;rounded=0;shadow=0;sketch=0;swimlaneLine=1;" parent="124" vertex="1">
                    <mxGeometry y="280" width="250" height="40" as="geometry"/>
                </mxCell>
                <mxCell id="168" value="containers" style="shape=partialRectangle;connectable=0;fillColor=none;top=0;left=0;bottom=0;right=0;editable=1;overflow=hidden;align=left;perimeterSpacing=1;spacingLeft=4;" parent="167" vertex="1">
                    <mxGeometry width="100" height="40" as="geometry">
                        <mxRectangle width="100" height="40" as="alternateBounds"/>
                    </mxGeometry>
                </mxCell>
                <mxCell id="169" value="containers" style="shape=partialRectangle;connectable=0;fillColor=none;top=0;left=0;bottom=0;right=0;align=right;spacingLeft=0;overflow=hidden;spacingRight=4;" parent="167" vertex="1">
                    <mxGeometry x="100" width="150" height="40" as="geometry">
                        <mxRectangle width="100" height="40" as="alternateBounds"/>
                    </mxGeometry>
                </mxCell>
                <mxCell id="200" style="edgeStyle=none;html=1;exitX=1;exitY=0.5;exitDx=0;exitDy=0;entryX=0;entryY=0.5;entryDx=0;entryDy=0;" parent="1" source="ju4wl3G7gAER3PkKtNhU-20" target="EYhqNaJftWTFuedgBaSu-16" edge="1">
                    <mxGeometry relative="1" as="geometry"/>
                </mxCell>
                <mxCell id="228" style="edgeStyle=none;html=1;exitX=0;exitY=0.5;exitDx=0;exitDy=0;entryX=1;entryY=0.5;entryDx=0;entryDy=0;" parent="1" source="161" target="225" edge="1">
                    <mxGeometry relative="1" as="geometry"/>
                </mxCell>
                <mxCell id="229" value="cargo_containers" style="swimlane;fontStyle=0;childLayout=stackLayout;horizontal=1;startSize=40;fillColor=default;horizontalStack=0;resizeParent=1;resizeParentMax=0;resizeLast=0;collapsible=1;marginBottom=0;" parent="1" vertex="1">
                    <mxGeometry x="1360" y="-40" width="200" height="120" as="geometry"/>
                </mxCell>
                <mxCell id="230" value="" style="shape=table;startSize=0;container=1;collapsible=1;childLayout=tableLayout;fixedRows=1;rowLines=0;fontStyle=0;align=center;resizeLast=1;strokeColor=none;fillColor=default;collapsible=0;swimlaneFillColor=none;dropTarget=1;" parent="229" vertex="1">
                    <mxGeometry y="40" width="200" height="40" as="geometry"/>
                </mxCell>
                <mxCell id="231" value="" style="shape=tableRow;horizontal=0;startSize=0;swimlaneHead=0;swimlaneBody=0;fillColor=default;collapsible=0;dropTarget=0;points=[[0,0.5],[1,0.5]];portConstraint=eastwest;top=0;left=0;right=0;bottom=0;spacingLeft=0;spacingRight=0;strokeColor=default;rounded=0;shadow=0;sketch=0;swimlaneLine=1;" parent="230" vertex="1">
                    <mxGeometry width="200" height="40" as="geometry"/>
                </mxCell>
                <mxCell id="232" value="cargo_id" style="shape=partialRectangle;connectable=0;fillColor=none;top=0;left=0;bottom=0;right=0;editable=1;overflow=hidden;align=left;perimeterSpacing=1;spacingLeft=4;" parent="231" vertex="1">
                    <mxGeometry width="100" height="40" as="geometry">
                        <mxRectangle width="100" height="40" as="alternateBounds"/>
                    </mxGeometry>
                </mxCell>
                <mxCell id="233" value="uuid" style="shape=partialRectangle;connectable=0;fillColor=none;top=0;left=0;bottom=0;right=0;align=right;spacingLeft=0;overflow=hidden;spacingRight=4;" parent="231" vertex="1">
                    <mxGeometry x="100" width="100" height="40" as="geometry">
                        <mxRectangle width="100" height="40" as="alternateBounds"/>
                    </mxGeometry>
                </mxCell>
                <mxCell id="234" value="" style="shape=tableRow;horizontal=0;startSize=0;swimlaneHead=0;swimlaneBody=0;fillColor=none;collapsible=0;dropTarget=0;points=[[0,0.5],[1,0.5]];portConstraint=eastwest;top=0;left=0;right=0;bottom=0;spacingLeft=0;spacingRight=0;strokeColor=default;rounded=0;shadow=0;sketch=0;swimlaneLine=1;" parent="229" vertex="1">
                    <mxGeometry y="80" width="200" as="geometry"/>
                </mxCell>
                <mxCell id="235" value="" style="shape=table;startSize=0;container=1;collapsible=1;childLayout=tableLayout;fixedRows=1;rowLines=0;fontStyle=0;align=center;resizeLast=1;strokeColor=none;fillColor=default;collapsible=0;swimlaneFillColor=none;dropTarget=1;" parent="229" vertex="1">
                    <mxGeometry y="80" width="200" height="40" as="geometry"/>
                </mxCell>
                <mxCell id="236" value="" style="shape=tableRow;horizontal=0;startSize=0;swimlaneHead=0;swimlaneBody=0;fillColor=default;collapsible=0;dropTarget=0;points=[[0,0.5],[1,0.5]];portConstraint=eastwest;top=0;left=0;right=0;bottom=0;spacingLeft=0;spacingRight=0;strokeColor=default;rounded=0;shadow=0;sketch=0;swimlaneLine=1;" parent="235" vertex="1">
                    <mxGeometry width="200" height="40" as="geometry"/>
                </mxCell>
                <mxCell id="237" value="container_id" style="shape=partialRectangle;connectable=0;fillColor=none;top=0;left=0;bottom=0;right=0;editable=1;overflow=hidden;align=left;perimeterSpacing=1;spacingLeft=4;" parent="236" vertex="1">
                    <mxGeometry width="100" height="40" as="geometry">
                        <mxRectangle width="100" height="40" as="alternateBounds"/>
                    </mxGeometry>
                </mxCell>
                <mxCell id="238" value="uuid" style="shape=partialRectangle;connectable=0;fillColor=none;top=0;left=0;bottom=0;right=0;align=right;spacingLeft=0;overflow=hidden;spacingRight=4;" parent="236" vertex="1">
                    <mxGeometry x="100" width="100" height="40" as="geometry">
                        <mxRectangle width="100" height="40" as="alternateBounds"/>
                    </mxGeometry>
                </mxCell>
                <mxCell id="243" value="docker_containers" style="swimlane;fontStyle=0;childLayout=stackLayout;horizontal=1;startSize=40;fillColor=default;horizontalStack=0;resizeParent=1;resizeParentMax=0;resizeLast=0;collapsible=1;marginBottom=0;" parent="1" vertex="1">
                    <mxGeometry x="2040" y="40" width="200" height="120" as="geometry"/>
                </mxCell>
                <mxCell id="244" value="" style="shape=table;startSize=0;container=1;collapsible=1;childLayout=tableLayout;fixedRows=1;rowLines=0;fontStyle=0;align=center;resizeLast=1;strokeColor=none;fillColor=default;collapsible=0;swimlaneFillColor=none;dropTarget=1;" parent="243" vertex="1">
                    <mxGeometry y="40" width="200" height="40" as="geometry"/>
                </mxCell>
                <mxCell id="245" value="" style="shape=tableRow;horizontal=0;startSize=0;swimlaneHead=0;swimlaneBody=0;fillColor=default;collapsible=0;dropTarget=0;points=[[0,0.5],[1,0.5]];portConstraint=eastwest;top=0;left=0;right=0;bottom=0;spacingLeft=0;spacingRight=0;strokeColor=default;rounded=0;shadow=0;sketch=0;swimlaneLine=1;" parent="244" vertex="1">
                    <mxGeometry width="200" height="40" as="geometry"/>
                </mxCell>
                <mxCell id="246" value="id" style="shape=partialRectangle;connectable=0;fillColor=none;top=0;left=0;bottom=0;right=0;editable=1;overflow=hidden;align=left;perimeterSpacing=1;spacingLeft=4;" parent="245" vertex="1">
                    <mxGeometry width="100" height="40" as="geometry">
                        <mxRectangle width="100" height="40" as="alternateBounds"/>
                    </mxGeometry>
                </mxCell>
                <mxCell id="247" value="uuid" style="shape=partialRectangle;connectable=0;fillColor=none;top=0;left=0;bottom=0;right=0;align=right;spacingLeft=0;overflow=hidden;spacingRight=4;" parent="245" vertex="1">
                    <mxGeometry x="100" width="100" height="40" as="geometry">
                        <mxRectangle width="100" height="40" as="alternateBounds"/>
                    </mxGeometry>
                </mxCell>
                <mxCell id="248" value="" style="shape=tableRow;horizontal=0;startSize=0;swimlaneHead=0;swimlaneBody=0;fillColor=none;collapsible=0;dropTarget=0;points=[[0,0.5],[1,0.5]];portConstraint=eastwest;top=0;left=0;right=0;bottom=0;spacingLeft=0;spacingRight=0;strokeColor=default;rounded=0;shadow=0;sketch=0;swimlaneLine=1;" parent="243" vertex="1">
                    <mxGeometry y="80" width="200" as="geometry"/>
                </mxCell>
                <mxCell id="249" value="" style="shape=table;startSize=0;container=1;collapsible=1;childLayout=tableLayout;fixedRows=1;rowLines=0;fontStyle=0;align=center;resizeLast=1;strokeColor=none;fillColor=default;collapsible=0;swimlaneFillColor=none;dropTarget=1;" parent="243" vertex="1">
                    <mxGeometry y="80" width="200" height="40" as="geometry"/>
                </mxCell>
                <mxCell id="250" value="" style="shape=tableRow;horizontal=0;startSize=0;swimlaneHead=0;swimlaneBody=0;fillColor=default;collapsible=0;dropTarget=0;points=[[0,0.5],[1,0.5]];portConstraint=eastwest;top=0;left=0;right=0;bottom=0;spacingLeft=0;spacingRight=0;strokeColor=default;rounded=0;shadow=0;sketch=0;swimlaneLine=1;" parent="249" vertex="1">
                    <mxGeometry width="200" height="40" as="geometry"/>
                </mxCell>
                <mxCell id="251" value="name" style="shape=partialRectangle;connectable=0;fillColor=none;top=0;left=0;bottom=0;right=0;editable=1;overflow=hidden;align=left;perimeterSpacing=1;spacingLeft=4;" parent="250" vertex="1">
                    <mxGeometry width="100" height="40" as="geometry">
                        <mxRectangle width="100" height="40" as="alternateBounds"/>
                    </mxGeometry>
                </mxCell>
                <mxCell id="252" value="uuid" style="shape=partialRectangle;connectable=0;fillColor=none;top=0;left=0;bottom=0;right=0;align=right;spacingLeft=0;overflow=hidden;spacingRight=4;" parent="250" vertex="1">
                    <mxGeometry x="100" width="100" height="40" as="geometry">
                        <mxRectangle width="100" height="40" as="alternateBounds"/>
                    </mxGeometry>
                </mxCell>
                <mxCell id="260" style="edgeStyle=none;html=1;exitX=1;exitY=0.5;exitDx=0;exitDy=0;entryX=0;entryY=0.5;entryDx=0;entryDy=0;" parent="1" source="167" target="231" edge="1">
                    <mxGeometry relative="1" as="geometry"/>
                </mxCell>
                <mxCell id="261" style="edgeStyle=none;html=1;exitX=1;exitY=0.5;exitDx=0;exitDy=0;entryX=0;entryY=0.5;entryDx=0;entryDy=0;" parent="1" source="236" target="245" edge="1">
                    <mxGeometry relative="1" as="geometry"/>
                </mxCell>
                <mxCell id="276" value="cluster_networks" style="swimlane;fontStyle=0;childLayout=stackLayout;horizontal=1;startSize=40;fillColor=default;horizontalStack=0;resizeParent=1;resizeParentMax=0;resizeLast=0;collapsible=1;marginBottom=0;" parent="1" vertex="1">
                    <mxGeometry x="1370" y="610" width="240" height="240" as="geometry"/>
                </mxCell>
                <mxCell id="277" value="" style="shape=table;startSize=0;container=1;collapsible=1;childLayout=tableLayout;fixedRows=1;rowLines=0;fontStyle=0;align=center;resizeLast=1;strokeColor=none;fillColor=default;collapsible=0;swimlaneFillColor=none;" parent="276" vertex="1">
                    <mxGeometry y="40" width="240" height="40" as="geometry"/>
                </mxCell>
                <mxCell id="278" value="" style="shape=tableRow;horizontal=0;startSize=0;swimlaneHead=0;swimlaneBody=0;fillColor=default;collapsible=0;dropTarget=0;points=[[0,0.5],[1,0.5]];portConstraint=eastwest;top=0;left=0;right=0;bottom=0;spacingLeft=0;spacingRight=0;strokeColor=default;rounded=0;shadow=0;sketch=0;swimlaneLine=1;" parent="277" vertex="1">
                    <mxGeometry width="240" height="40" as="geometry"/>
                </mxCell>
                <mxCell id="279" value="key" style="shape=partialRectangle;connectable=0;fillColor=none;top=0;left=0;bottom=0;right=0;editable=1;overflow=hidden;align=left;perimeterSpacing=0;spacingLeft=4;labelBorderColor=none;" parent="278" vertex="1">
                    <mxGeometry width="100" height="40" as="geometry">
                        <mxRectangle width="100" height="40" as="alternateBounds"/>
                    </mxGeometry>
                </mxCell>
                <mxCell id="280" value="vchar pk" style="shape=partialRectangle;connectable=0;fillColor=none;top=0;left=0;bottom=0;right=0;align=right;spacingLeft=0;overflow=hidden;spacingRight=4;" parent="278" vertex="1">
                    <mxGeometry x="100" width="140" height="40" as="geometry">
                        <mxRectangle width="140" height="40" as="alternateBounds"/>
                    </mxGeometry>
                </mxCell>
                <mxCell id="305" value="" style="shape=table;startSize=0;container=1;collapsible=1;childLayout=tableLayout;fixedRows=1;rowLines=0;fontStyle=0;align=center;resizeLast=1;strokeColor=none;fillColor=default;collapsible=0;swimlaneFillColor=none;" parent="276" vertex="1">
                    <mxGeometry y="80" width="240" height="40" as="geometry"/>
                </mxCell>
                <mxCell id="306" value="" style="shape=tableRow;horizontal=0;startSize=0;swimlaneHead=0;swimlaneBody=0;fillColor=default;collapsible=0;dropTarget=0;points=[[0,0.5],[1,0.5]];portConstraint=eastwest;top=0;left=0;right=0;bottom=0;spacingLeft=0;spacingRight=0;strokeColor=default;rounded=0;shadow=0;sketch=0;swimlaneLine=1;" parent="305" vertex="1">
                    <mxGeometry width="240" height="40" as="geometry"/>
                </mxCell>
                <mxCell id="307" value="name" style="shape=partialRectangle;connectable=0;fillColor=none;top=0;left=0;bottom=0;right=0;editable=1;overflow=hidden;align=left;perimeterSpacing=0;spacingLeft=4;labelBorderColor=none;" parent="306" vertex="1">
                    <mxGeometry width="100" height="40" as="geometry">
                        <mxRectangle width="100" height="40" as="alternateBounds"/>
                    </mxGeometry>
                </mxCell>
                <mxCell id="308" value="vchar" style="shape=partialRectangle;connectable=0;fillColor=none;top=0;left=0;bottom=0;right=0;align=right;spacingLeft=0;overflow=hidden;spacingRight=4;" parent="306" vertex="1">
                    <mxGeometry x="100" width="140" height="40" as="geometry">
                        <mxRectangle width="140" height="40" as="alternateBounds"/>
                    </mxGeometry>
                </mxCell>
                <mxCell id="299" value="" style="shape=tableRow;horizontal=0;startSize=0;swimlaneHead=0;swimlaneBody=0;fillColor=default;collapsible=0;dropTarget=0;points=[[0,0.5],[1,0.5]];portConstraint=eastwest;top=0;left=0;right=0;bottom=0;spacingLeft=0;spacingRight=0;strokeColor=default;rounded=0;shadow=0;sketch=0;swimlaneLine=1;" parent="276" vertex="1">
                    <mxGeometry y="120" width="240" height="40" as="geometry"/>
                </mxCell>
                <mxCell id="300" value="cluster_key" style="shape=partialRectangle;connectable=0;fillColor=none;top=0;left=0;bottom=0;right=0;editable=1;overflow=hidden;align=left;perimeterSpacing=0;spacingLeft=4;labelBorderColor=none;" parent="299" vertex="1">
                    <mxGeometry width="100" height="40" as="geometry">
                        <mxRectangle width="100" height="40" as="alternateBounds"/>
                    </mxGeometry>
                </mxCell>
                <mxCell id="301" value="vchar(100)" style="shape=partialRectangle;connectable=0;fillColor=none;top=0;left=0;bottom=0;right=0;align=right;spacingLeft=0;overflow=hidden;spacingRight=4;" parent="299" vertex="1">
                    <mxGeometry x="100" width="140" height="40" as="geometry">
                        <mxRectangle width="100" height="40" as="alternateBounds"/>
                    </mxGeometry>
                </mxCell>
                <mxCell id="309" value="" style="shape=tableRow;horizontal=0;startSize=0;swimlaneHead=0;swimlaneBody=0;fillColor=default;collapsible=0;dropTarget=0;points=[[0,0.5],[1,0.5]];portConstraint=eastwest;top=0;left=0;right=0;bottom=0;spacingLeft=0;spacingRight=0;strokeColor=default;rounded=0;shadow=0;sketch=0;swimlaneLine=1;" parent="276" vertex="1">
                    <mxGeometry y="160" width="240" height="40" as="geometry"/>
                </mxCell>
                <mxCell id="310" value="docker_network_id" style="shape=partialRectangle;connectable=0;fillColor=none;top=0;left=0;bottom=0;right=0;editable=1;overflow=hidden;align=left;perimeterSpacing=0;spacingLeft=4;labelBorderColor=none;" parent="309" vertex="1">
                    <mxGeometry width="130" height="40" as="geometry">
                        <mxRectangle width="100" height="40" as="alternateBounds"/>
                    </mxGeometry>
                </mxCell>
                <mxCell id="311" value="vchar(100)" style="shape=partialRectangle;connectable=0;fillColor=none;top=0;left=0;bottom=0;right=0;align=right;spacingLeft=0;overflow=hidden;spacingRight=4;" parent="309" vertex="1">
                    <mxGeometry x="100" width="140" height="40" as="geometry">
                        <mxRectangle width="100" height="40" as="alternateBounds"/>
                    </mxGeometry>
                </mxCell>
                <mxCell id="288" value="" style="shape=tableRow;horizontal=0;startSize=0;swimlaneHead=0;swimlaneBody=0;fillColor=default;collapsible=0;dropTarget=0;points=[[0,0.5],[1,0.5]];portConstraint=eastwest;top=0;left=0;right=0;bottom=0;spacingLeft=0;spacingRight=0;strokeColor=default;rounded=0;shadow=0;sketch=0;swimlaneLine=1;" parent="276" vertex="1">
                    <mxGeometry y="200" width="240" height="40" as="geometry"/>
                </mxCell>
                <mxCell id="289" value="environements" style="shape=partialRectangle;connectable=0;fillColor=none;top=0;left=0;bottom=0;right=0;editable=1;overflow=hidden;align=left;perimeterSpacing=0;spacingLeft=4;labelBorderColor=none;" parent="288" vertex="1">
                    <mxGeometry width="100" height="40" as="geometry">
                        <mxRectangle width="100" height="40" as="alternateBounds"/>
                    </mxGeometry>
                </mxCell>
                <mxCell id="290" value="vchar(100)" style="shape=partialRectangle;connectable=0;fillColor=none;top=0;left=0;bottom=0;right=0;align=right;spacingLeft=0;overflow=hidden;spacingRight=4;" parent="288" vertex="1">
                    <mxGeometry x="100" width="140" height="40" as="geometry">
                        <mxRectangle width="100" height="40" as="alternateBounds"/>
                    </mxGeometry>
                </mxCell>
                <mxCell id="291" value="" style="shape=tableRow;horizontal=0;startSize=0;swimlaneHead=0;swimlaneBody=0;fillColor=none;collapsible=0;dropTarget=0;points=[[0,0.5],[1,0.5]];portConstraint=eastwest;top=0;left=0;right=0;bottom=0;spacingLeft=0;spacingRight=0;strokeColor=default;rounded=0;shadow=0;sketch=0;swimlaneLine=1;" parent="276" vertex="1">
                    <mxGeometry y="240" width="240" as="geometry"/>
                </mxCell>
                <mxCell id="312" style="edgeStyle=none;html=1;exitX=1;exitY=0.5;exitDx=0;exitDy=0;entryX=0;entryY=0.5;entryDx=0;entryDy=0;" parent="1" source="201" target="299" edge="1">
                    <mxGeometry relative="1" as="geometry"/>
                </mxCell>
                <mxCell id="313" style="edgeStyle=none;html=1;exitX=0;exitY=0.5;exitDx=0;exitDy=0;entryX=1;entryY=0.5;entryDx=0;entryDy=0;" parent="1" source="158" target="ju4wl3G7gAER3PkKtNhU-20" edge="1">
                    <mxGeometry relative="1" as="geometry"/>
                </mxCell>
            </root>
        </mxGraphModel>
    </diagram>
</mxfile>
